<?xml version="1.0" encoding="utf-8"?>
<!-- Generator: Adobe Illustrator 27.5.0, SVG Export Plug-In . SVG Version: 6.00 Build 0)  -->
<svg version="1.1" xmlns="http://www.w3.org/2000/svg" xmlns:xlink="http://www.w3.org/1999/xlink" x="0px" y="0px"
	 viewBox="0 0 500 500" style="enable-background:new 0 0 500 500;" xml:space="preserve">
<g id="BACKGROUND">
	<rect style="fill:#FFFFFF;" width="500" height="500"/>
</g>
<g id="OBJECTS">
	<g>
		<circle style="fill:#333232;" cx="249.997" cy="250" r="166.936"/>
		<g>
			<path style="fill:#FFFFFF;" d="M276.147,173.737c-1.535,1.199-3.23,1.8-4.05,3.769c-0.59,1.415,0.856,4.33,0.125,5.164
				c-0.819,0.935-4.969,0.037-6.312,0.645c-1.508,0.683-5.206,4.536-1.763,5.325c-1.271,1.33-2.678,3.638-0.534,4.827
				c2.993,1.66,5.662-1.617,6.776-3.875c0.638-1.294,2.68-5.925,4.983-3.664c1.532,1.505-0.856,3.099-1.67,3.997
				c-1.766,1.949-1.38,2.652,0.814,3.985c-1.464,0.527-5.416,2.003-2.372,3.559c1.239,0.633,5.247,0.137,6.656,0
				c2.079-0.203,4.908-0.927,5.997-2.942c1.053-1.948,0.161-3.962-2.189-3.975c-0.176-3.186-1.078-3.353-2.794-5.877
				c-1.219-1.793-0.167-2.191-0.117-4.067c0.068-2.519-1.806-2.032-2.459-3.543C276.685,175.782,278.591,172.852,276.147,173.737z"
				/>
			<path style="fill:#FFFFFF;" d="M353.519,133.389c-1.836-0.386-1.44,0.85-2.494,1.556c-0.775,0.519-1.881,0.454-2.838,1.049
				c-2.825,1.757-2.122,6.06-1.989,8.973c0.123,2.686-0.01,5.465,2.444,6.995c2.061,1.285,5.938,2.404,8.168,1.335
				c-0.488-1.854-3.406-3.014-4.491-4.724c-1.117-1.76-3.784-5.58-2.962-7.818C349.986,139.04,358.254,135.933,353.519,133.389z"/>
			<path style="fill:#FFFFFF;" d="M249.148,241.319c-0.396,0.52-1.08,0.885-1.683,1.107c-0.437,0.161-1.003,0.342-1.25,0.783
				c-0.598,1.07,2.357,0.086,2.619-0.054c0.489-0.261,1.314-0.771,1.547-1.314c0.071-0.165,0.182-0.552,0.013-0.698
				C250.067,240.859,249.408,241.273,249.148,241.319z"/>
			<path style="fill:#FFFFFF;" d="M245.243,240.746c-0.34,0.103-1.317,0.357-1.316,0.834c0.001,0.365,0.767,0.245,1.004,0.181
				c0.363-0.097,1.077-0.52,1.269-0.854C246.448,240.477,245.487,240.693,245.243,240.746z"/>
			<path style="fill:#FFFFFF;" d="M239.021,239.991c-0.14,0.471-0.368,1.405,0.296,1.554c0.586,0.131,1.068-0.489,1.326-0.928
				c0.14-0.238,0.218-0.463,0.047-0.69c-0.264-0.35-0.772-0.246-1.139-0.184C239.309,239.785,239.186,239.913,239.021,239.991z"/>
			<path style="fill:#FFFFFF;" d="M286.318,222.856c-1.114,0.768-0.421,1.626,0.502,1.062
				C287.742,223.354,287.143,222.287,286.318,222.856z"/>
			<path style="fill:#FFFFFF;" d="M284.509,225.615c-0.283,0.069-0.423,0.373-0.231,0.644c0.21,0.298,1.244,0.149,1.342-0.168
				c0.094-0.302-0.131-0.593-0.423-0.601C285.016,225.484,284.821,225.525,284.509,225.615z"/>
			<path style="fill:#FFFFFF;" d="M298.705,219.101c-0.621-0.006-1.232,0.561-1.189,1.206c0.025,0.379,0.46,0.983,0.715,1.236
				c0.269,0.266,0.456,0.119,0.738-0.116C299.5,220.982,299.71,219.42,298.705,219.101z"/>
			<path style="fill:#FFFFFF;" d="M298.123,223.23c-1.059,0.001-1.108,1.154-0.918,1.997c0.078,0.349,0.246,1.046,0.618,1.183
				c0.395,0.145,1.11-0.019,1.416-0.286c0.651-0.568,0.273-2.194-0.219-2.76C298.819,223.134,298.344,222.919,298.123,223.23z"/>
			<path style="fill:#FFFFFF;" d="M306.769,230.269c-0.904,0.002-2.408-0.065-1.613,1.213c0.343,0.551,0.914,0.933,1.41,1.334
				c0.378,0.307,0.733,0.632,1.099,0.953c0.288,0.253,0.365,0.326,0.6-0.062c0.395-0.653,0.132-1.719-0.25-2.328
				C307.744,230.946,307.221,230.174,306.769,230.269z"/>
			<path style="fill:#FFFFFF;" d="M279.833,171.437c-0.666,0.821-0.077,2.836,0.559,3.532c0.78,0.854,1.514-0.61,1.831-1.406
				c0.362-0.91,0.717-2.784-0.559-3.042C281.035,170.394,280.031,170.871,279.833,171.437z"/>
			<path style="fill:#FFFFFF;" d="M216.068,105.677c-0.747-2.04-3.257-4.584-5.289-5.11c-3.229-0.837-6.085,1.923-9.006,1.879
				c-4.204-0.063-9.847-1.996-11.693,3.387c-0.993-1.761-4.292-0.495-5.659,0.106c-4.454,1.957-4.116,4.723-2.29,8.563
				c-2.448,1.514-5.823-0.28-8.471-0.177c-2.282,0.089-4.689,1.011-6.646,2.221c-1.873,1.158-2.211,1.652-0.383,2.99
				c3.669,2.685,10.238,2.228,14.504,2.993c2.017,0.361,6.151,0.661,3.229-2.396c-1.278-1.338-5.424-0.21-6.06-1.31
				c-1.254-2.169,3.704-1.384,4.493-1.185c2.897,0.731,3.206,0.841,5.004-1.21c1.508-1.72,1.965-1.284,3.983-2.234
				c1.762-0.83,3.907-3.04,5.349-0.356c-1.02,1.052-2.48,2.574-2.144,4.249c0.434,2.159,2.642,1.834,4.665,2.012
				c3.655,0.323,4.509,0.99,4.208,4.877c-0.155,2.007-0.537,1.299-1.674,3.205c-0.774,1.299-0.616,3.418,0.338,4.603
				c1.097,1.362,2.443,0.962,2.676,2.822c0.12,0.957-0.798,3.404-1.546,4.018c-1.417,1.163-3.32,0.738-4.803,2.514
				c-1.611,1.93-2.553,5.759-0.773,7.807c-2.022,2.8-2.615,12.764,3.094,11.185c0.738,3.209,3.839,6.57,7.116,4.382
				c5.081-3.393,5.259-12.365,11.993-14.121c2.309-0.602,3.778,0.393,5.809-1.144c2.042-1.545,3.072-4.371,5.319-5.604
				c3.734-2.051,8.495,0.732,12.245-1.212c4.251-2.203,3.598-4.466,3.68-8.452c1.097-0.158,3.999-0.892,4.664-2.033
				c0.29-0.498-0.133-1.258,0.029-1.563c0.307-0.575,0.477-0.638,0.948-1.285c1.399-1.927,3.095-2.68,1.186-5.371
				c3.059-1.296,2.064-2.165,1.501-4.777c-0.368-1.707,0.088-0.787,1.036-2.478c0.548-0.978,0.791-1.818-0.042-2.875
				c2.128-0.517,9.377,0.221,9.286-2.379c-0.095-2.702-7.349-1.622-9.281-2.145c-0.187-3.741,0.969-4.473-3.322-6.039
				c-3.066-1.119-7.044-1.062-10.24-0.628c-2.007,0.273-3.918,1.391-5.955,1.13c-2.366-0.303-4.077-1.755-6.644-0.815
				c0.236,0.938,1.627,2.381,0.597,3.242c-1.085,0.907-3.947-1.04-4.959-1.394C222.544,104.313,220.238,104.854,216.068,105.677z"/>
			<path style="fill:#FFFFFF;" d="M133.378,130.335c0.818-0.75,4.696-2.64,5.773-1.704c0.669,0.582,0.192,3.241,0.262,4.075
				c2.178-3.605,3.738-6.179,7.683-8.407c1.42-0.802,7.157-4.64,6.218-0.299c0.359-0.395,1.003-0.547,1.307-0.781
				c0.38,1.793-1.094,3.452-1.404,5.181c-0.397,2.216,0.378,3.001-1.694,4.108c-1.268,0.677-5.092,1.052-5.471,2.925
				c-0.47,2.327,3.889,2.767,5.459,2.611c6.762-0.672,3.707-8.631,5.47-12.874c2.087-5.021,7.415-2.103,10.825-0.871
				c5.059,1.827,10.723,1.48,14.011,6.466c0.882,1.338,1.931,3.41,1.673,5.074c-0.234,1.508-1.151,1.855-0.551,3.536
				c1.008,2.823,3.886,2.897,3.25,6.208c-0.316,1.643-1.515,3.122-3.052,3.975c-1.901,1.056-2.456,0.552-2.988-1.559
				c-0.212-0.839-0.818-5.451-2.388-2.368c-1.028,2.019,3.545,7.301-0.046,8.363c-1.907,0.564-2.176-2.324-3.558-1.993
				c-1.288,0.309-0.394,2.868-0.465,3.746c-4.304,1.624-5.922-4.304-5.986-7.471c-1.403-0.077-4.936,1.373-4.633-1.154
				c0.273-2.274,4.017-1.415,5.499-1.756c3.371-0.777,7.015-6.33,4.776-9.595c-1.041-1.519-3.413-2.53-5.177-1.722
				c-2.398,1.098-0.686,4.091-2.011,6.045c-1.764,2.604-4.333,1.513-6.623,2.556c-2.106,0.959-0.744,1.681-0.493,3.867
				c0.736,6.41-6.321,1.676-9.921,2.662c-3.008,0.824-9.397,2.874-10.701,5.713c-1.308,2.848-0.501,8.533,1.549,10.652
				c1.721,1.779,3.546,2.139,4.562,4.71c1.009,2.551-1.846,7.631-0.305,9.7c2.415,3.241,3.256-5.217,3.553-6.262
				c0.93-3.278,5.278-2.302,6.611-6.029c0.725-2.028-0.628-4.58,0.202-6.352c0.596-1.275,2.442-1.018,3.118-2.029
				c0.695-1.04,0.185-2.413,0.928-3.552c0.831-1.274,3.288-2.849,4.891-2.621c1.663,0.236,2.12,1.648,3.376,2.63
				c1.044,0.816,1.736,0.088,1.891,2.096c0.141,1.826-3.567,8.076,0.666,6.396c1.906-0.756,2.583-3.665,4.888-3.789
				c1.473,3.302,0.232,7.062,1.022,10.515c0.498,2.176,1.334,4.173,2.954,5.661c1.363,1.251,3.966,2.205,3.958,4.475
				c-0.008,2.423-3.113,3.923-2.356,6.722c0.543,2.009,2.396,2.558,2.441,4.986c0.099,5.362-7.953,1.873-9.273-1.115
				c-1.088-2.462,1.877-5.064,3.043-7.041c-3.241,0.088-5.377,1.068-8.85,0.342c-1.789-0.374-6.963-0.407-5.77,3.169
				c0.321,0.963,2.677,1.678,3.291,2.633c0.647,1.005,1.56,4.365,1.158,5.575c-1.015,3.049-7.405,1.383-10.048,2.285
				c-2.571,0.878-3.81,2.129-5.026,4.283c-1.739,3.079-1.853,1.503-4.994,2.267c-3.856,0.938-3.637,6.309-5.217,9.113
				c-2.214,3.929-6.636,5.692-9.033,9.533c-2.718,4.354-0.972,7.775-0.931,12.303c0.011,1.193,0.195,3.165-1.568,2.776
				c-1.963-0.433-2.446-5.511-2.927-6.987c-0.651-1.999-1.436-3.64-3.714-3.886c-1.43-0.155-3.402,0.411-3.543,1.972
				c-2.291-1.127-3.344-2.996-6.109-1.642c-3.149,1.542-4.674,5.6-5.146,8.897c-0.524,3.657-0.988,13.208,4.044,14.683
				c1.465,0.429,1.991-0.644,2.823-1.748c0.841-1.116,1.919-3.653,3.658-3.551c2.155,0.126,1.938,2.661,1.563,4.329
				c-0.453,2.01-2.306,4.293-1.513,6.502c0.804,2.239,2.275,1.044,3.79,2.04c3.089,2.03,0.987,7.473,1.979,10.429
				c0.7,2.085,1.601,1.975,3.547,1.98c2.539,0.006,3.912,0.657,5.493,2.41c0.832-0.717,0.614-1.4,0.987-2.222
				c0.942-2.077,1.91-3.294,4.207-4.139c4.502-1.655,2.727,2.196,5.836,3.977c2.788,1.597,7.255-0.316,10.34,0.411
				c3.094,0.729,2.872,3.052,4.419,5.237c3.983,5.625,12.835,5.873,15.333,13.23c0.426,1.256,0.656,2.615,0.178,3.952
				c-0.321,0.899-1.67,1.745-1.794,2.632c-0.206,1.467,1.572,3.48,3.114,3.341c2.439-0.219,1.81-3.552,4.917-2.453
				c2.448,0.867,3.08,2.755,3.996,4.809c2.699-1.4,6.435,0.269,8.835,1.574c1.608,0.875,3.172,2.429,4.703,3.164
				c0.482,0.231,0.894,0.467,1.255,0.604c0.854,0.326,1.665-0.382,2.694,0.395c2.506,1.889,0.998,6.135-0.246,8.3
				c-1.213,2.11-2.729,2.984-4.769,4.192c-1.507,0.892-1.591,0.64-1.876,2.505c-0.627,4.101,1.232,10.042-1.663,13.608
				c-1.806,2.225-5.675,1.119-7.732,3.108c-1.258,1.217-1.368,3.527-1.469,5.144c-0.166,2.678-0.569,4.722-1.784,7.165
				c-1.607,3.23-4.012,4.981-6.989,6.452c0.792,2.175,2.204,4.484,0.083,6.103c-0.896,0.683-2.078,0.387-2.881,1.159
				c-1.48,1.422-0.458,2.928-0.197,4.884c0.282,2.111,0.134,4.402,0.685,6.45c0.582,2.164,2.45,2.474,3.567,4.373
				c0.789,1.341,0.831,2.913,1.81,4.367c0.984,1.461,2.783,2.673,2.797,4.512c-2.697,0.838-6.126-2.935-7.908-4.788
				c-3.392-3.526-5.479-7.613-7.745-11.622c-1.51-2.671-4.618-3.171-6.337-5.576c-1.394-1.951-1.679-4.835-2.214-7.145
				c-0.626-2.705-1.135-5.332-2.09-7.958c-1.23-3.384-3.106-6.657-3.668-10.239c-0.548-3.497,0.288-7.494-0.594-10.894
				c-0.698-2.69-3.034-4.77-4.948-6.595c-4.182-3.988-6.807-8.45-9.53-13.42c-2.157-3.937-6.134-6.436-6.599-11.062
				c-0.331-3.292-1.372-7.146-0.893-10.443c0.613-4.217,3.322-7.817,2.898-12.307c-0.396-4.19-3.56-2.744-6.655-3.421
				c-2.646-0.579-3.379-1.667-4.61-4.279c-0.869-1.843-0.226-4.106-1.198-5.929c-0.878-1.649-2.964-2.322-4.162-3.706
				c-1.044-1.204-1.477-3.612-2.938-4.442c-1.244-0.707-3.351-0.147-4.763-0.755c-2.452-1.056-4.635-3.526-5.606-5.936
				c-1.577-3.915-1.248-8.456-2.034-12.539c-0.722-3.749-3.521-6.965-4.634-10.66c-2.904-9.64-2.51-22.451,1.275-31.793
				c1.132-2.792,2.937-5.29,4.111-8.074c2.463-5.837,2.718-12.251,5.05-18.111c1.863-4.684,3.918-11.257,7.538-14.821
				C113.202,154.672,126.519,136.62,133.378,130.335z"/>
			<path style="fill:#FFFFFF;" d="M161.199,113.326c-1.894,0.295-4.147,1.548-4.916,3.427c-0.618,1.512-0.278,2.407,1.258,2.559
				c2.321,0.229,7.529-2.307,7.623-4.963c-1.645-0.085-3.154,0.4-4.746,0.319c0.678-0.58,1.82-1.128,2.086-1.991
				C162.28,112.848,162.133,112.774,161.199,113.326z"/>
			<path style="fill:#FFFFFF;" d="M175.498,107.506c-4.558-0.291-4.919,4.382-0.237,3.99c2.752-0.23,2.459-3.955,0.071-3.99"/>
			<path style="fill:#FFFFFF;" d="M247.327,153.729c-1.389-2.174-7.484-3.246-6.95,0.333c0.319,2.142,3.654,6.043,5.544,6.703
				c3.995,1.396,11.778-0.52,14.273-3.952c2.632-3.621-2.442-3.668-4.628-3.583c-2.049,0.08-3.922,0.464-5.911,0.872
				C248.147,154.412,248.108,154.129,247.327,153.729z"/>
			<path style="fill:#FFFFFF;" d="M126.282,243.266c-1.052,0.32-3.065,1.005-3.694,1.932c-0.846,1.247,0.019,1.249,1.136,1.187
				c2.154-0.118,6.743-0.177,7.539,2.5c0.464,1.56-1.312,3.332,1.401,3.61c1.931,0.197,5.142-1.355,6.089,1.055
				c0.508,1.294-0.029,0.629-0.998,1.281c-0.782,0.526-0.912,0.92-0.218,1.499c0.732,0.611,3.142,1.038,3.998,1.187
				c1.277,0.221,3.485,0.219,4.524-0.688c2.377-2.074-3.01-4.617-4.442-5.222c-0.971-0.41-1.761-0.676-2.801-0.733
				c-0.84-0.046-1.567,0.185-2.061-0.372c-0.255-0.287-0.481-1.482-0.73-1.888c-0.529-0.865-1.207-1.531-2.075-2.076
				c-0.918-0.577-1.917-0.987-2.803-1.602C129.22,243.6,127.89,243.391,126.282,243.266z"/>
			<path style="fill:#FFFFFF;" d="M132.642,254.864c-1.088-0.403-2.522,0.224-1.877,1.469c0.277,0.535,1.984,1.839,2.641,1.892
				c1.063,0.085,1.678-1.102,1.356-1.992c-0.248-0.687-1.089-1.098-1.746-1.369H132.642z"/>
			<path style="fill:#FFFFFF;" d="M342.948,338.025c-0.943,2.294-2.904,4.646-5.349,5.135c-1.607,0.321-3.465-0.28-4.881,0.638
				c-1.418,0.92-2.03,3.079-2.78,4.505c-1.227,2.333-2.843,4.335-4.502,6.374c-2.345,2.883-3.4,7.849,1.872,5.381
				c6.053-2.834,11.144-7.594,14.75-13.118c1.253-1.919,3.564-4.849,3.807-7.189C346.015,338.312,344.951,336.792,342.948,338.025z"
				/>
			<path style="fill:#FFFFFF;" d="M310.504,120.36c-3.082-3.071-8.244-1.621-12.206-1.816c-1.744-0.086-5.745-0.705-6.425,1.64
				c-0.536,1.849,2.359,3.971,3.491,5.1c1.517,1.512,4.373,5.42,6.864,4.563c2.562-0.881,0.893-3.709,2.178-4.669
				c1.125-0.841,6.52,8.729,7.217,2.99c0.186-1.534-0.949-2.288-0.983-3.525C310.589,122.878,311.76,122.023,310.504,120.36z"/>
			<path style="fill:#FFFFFF;" d="M414.928,226.5c-2.66-46.556-43.23-91.227-43.23-91.227c-6.81,4.933,0.679,10.343,1.685,16.169
				c-2.01-0.759-6.779-3.522-8.926-2.46c-3.641,1.802,0.596,6.319,1.288,8.778c-2.09-1.216-4.911-0.529-6.425,1.404
				c-4.396-2.068-7.207-3.456-9.909,1.597c-0.821-1.743-2.496-4.043-4.59-2.817c-0.099,2.025,0.253,4.93-1.121,6.526
				c-1.395,1.621-3.611,0.665-3.328,4.032c-3.365-3.031-6.398-6.896-9.809-9.901c1.905,0.201,4.126,1.304,5.885-0.117
				c1.382-1.116,1.844-4.875,0.835-6.255c-1.328-1.816-3.693-0.911-5.749-1.329c-3.403-0.692-5.716-3.356-9.134-4.248
				c-9.051-2.362-12.252,4.995-17.542,10.566c-5.851,6.163-13.811,5.091-14.64,15.458c-0.915,11.442,5.041,3.099,9.926,2.858
				c0.177,3.564,3.797,4.915,4.731,8.288c0.683,2.468,0.431,5.842,4.164,2.453c1.361-1.235,1.112-3.027,1.803-4.448
				c1.022-2.104,1.316-0.982,2.676-2.734c2.592-3.338-0.988-4.249-1.361-6.892c-0.468-3.309,2.87-3.097,4.272-5.744
				c0.807-1.524,1.706-8.392,5.728-6.194c3.421,1.869-1.957,7.126-2.601,9.096c-0.725,2.221-0.925,5.431,0.627,7.329
				c2.439,2.984,7.015,1.504,9.963,2.469c3.335,1.092,2.882,3.33-0.682,3.675c-0.949,0.092-3.411-1.041-4.339-0.356
				c-1.062,0.784-0.537,2.465-1.049,3.624c-2.168-1.05-4.099-0.978-5.528,1.049c-2.018,2.864,0.433,2.682-3.537,3.353
				c-2.557,0.432-5.099,1.407-7.332,0.969c-2.338-0.458-3.016-1.797-5.733-0.714c-2.546-2.625,1.476-7.833-2.088-9.634
				c-4.544,2.271-1.366,6.393-3.342,9.159c-0.939,1.315-3.439,0.094-4.627,0.841c-1.858,1.169-0.741,1.46-1.334,3.341
				c-1.649,5.236-4.683,3.154-8.902,4.988c-1.392,0.605-1.374,2.109-2.47,2.593c-1.656,0.73-3.871-0.844-5.543-0.88
				c0.567,4.262,5.274,6.985,2.892,11.87c-4.534,0.269-9.21-1.075-13.576,0.384c-3.73-0.067-0.301,1.189-0.32,3.159
				c-0.021,2.231-1.688,4.053-2.307,6.078c2.975,0.7,2.241,3.056,1.329,4.996c2.651,0.79,3.432,1.24,5.563,2.785
				c-0.112,4.646-3.205,4.498-6.277,6.593c-2.192,1.495-1.578,2.413-2.644,4.314c-1.232,2.197-1.718,2.142-3.812,3.322
				c-4.908,2.767-12.648,7.251-13.745,13.394c-0.499,2.793,0.742,5.345,0.384,8.09c-0.506,3.884-2.726,6.925-0.449,10.794
				c1.544,2.624,3.229,4.578,4.304,7.45c1.196,3.192,2.166,5.691,4.349,8.345c3.227,3.925,4.957,2.285,9.311,3.126
				c1.948,0.376,3.359,1.533,5.382,1.712c3.596,0.319,7.571-1.339,11.238-1.355c1.656-0.007,4.069-0.13,5.487,0.819
				c1.724,1.155,1.193,2.911,2.312,3.852c2.712,2.28,7.138-2.016,7.501,2.811c0.259,3.441-3.125,5.672-2.497,9.644
				c0.892,5.641,3.902,10.175,3.491,16.608c-0.3,4.697-4.332,7.694-5.005,12.515c-0.341,2.443,0.56,4.931,0.35,7.29
				c-0.193,2.161-0.972,2.786-1.912,4.73c-1.794,3.707-0.693,7.609-1.073,11.565c-0.366,3.809-1.52,5.645,3.311,6.336
				c5.758,0.823,11.607-1.589,16.228-4.673c2.886-1.925,4.637-4.431,7.072-6.674c1.333-1.228,2.619-1.27,3.973-2.214
				c3.171-2.212,2.292-6.242,5.668-8.717c3.229-2.366,6.944-2.872,9.106-6.849c2.62-4.82,2.734-10.834,5.833-15.588
				c3.152-4.835,8.781-8.862,13.108-12.662c3.02-2.653,19.884-18.024,8.712-19.457c-2.891-0.371-5.971,0.204-8.803,0.281
				c-0.076-1.889,0.332-4.225-0.368-5.934c-0.694-1.694-2.476-2.428-3.001-4.315c-0.735-2.644,0.547-5.863,0.025-8.563
				c-0.438-2.264-1.613-3.595-2.011-5.786c-0.387-2.128,0.075-4.004-0.667-6.138c-0.538-1.547-2.631-3.691-2.352-5.4
				c0.406-2.478,2.254-2.087,3.932-0.651c3.944,3.374,5.03,11.174,5.755,15.889c0.814,5.297,0.98,10.479,0.977,15.91
				c3.604,0.201,10.134,0.935,12.987-2.262c1.444-1.617,0.809-4.208,2.653-5.378c3.731,3.602,9.733-1.667,10.899-5.605
				c1.111-3.751-2.765-7.566-2.994-11.28c-6.125,7.281-13.361-7.301-10.014-11.661c2.625,4.036,6.917,9.931,12.342,6.008
				c0.368,5.123,6.229,6.921,10.659,6.65c0.191,3.444-0.001,5.902,1.796,8.972c1.646,2.812,2.161,3.819,2.245,7.208
				c0.091,3.678-0.395,6.633-1.676,10.016c-0.919,2.427-2.306,4.976-1.931,7.64c10.396,1.154,12.148-20.011,19.254-24.605
				c5.469,3.903-0.793,17.32-1.689,22.337c-0.86,4.814-2.65,19.095-0.657,14.622C423.796,269.731,414.928,226.5,414.928,226.5z
				 M345.149,240.923c-0.415,2.44-2.551,8.73-5.818,8.644c-1.488-0.039-1.795-1.644-2.884-2.243
				c-1.742-0.959-3.672-0.062-5.438,0.246c-3.771,0.657-3.769-0.885-6.089-3.505c-1.345-1.519-1.97-1.71-4.157-0.951
				c-2.872,0.996-2.174,2.506-3.508,4.561c-1.965,3.028-3.282-0.625-5.802-1.165c-2.969-0.637-3.848,0.292-5.496-2.835
				c-1.338-2.54-3.262-3.832-6.514-4.137c1.893-2.21,1.001-3.424,0.421-5.72c-0.328-1.298,0.571-1.262-0.723-2.217
				c-0.8-0.59-3.074-0.622-4.074-0.677c-4.045-0.224-7.87,0.12-11.711,0.892c-3.095,0.622-6.905,2.621-10.095,2.001
				c-1.38-0.268-3.729-1.295-1.83-2.72c1.288-0.966,3.591,0.302,4.999-0.765c0.627-0.475,0.798-1.553,1.442-2.117
				c0.592-0.519,1.476-0.564,2.05-1.054c1.779-1.519,0.247-2.161,0.439-4.428c0.395-4.672,6.983-1.912,7.132-7.277
				c1.776-0.717,3.062,0.493,4.618,1.026c2.896,0.993,4.8-0.556,7.315-1.73c1.894-0.494,2.057,3.12,2.881,4.438
				c1.499,2.397,4.319,3.371,5.942,5.55c1.223,1.642,0.205,5.495,2.139,6.033c2.724,0.759,2.071-2.627,2.151-4.239
				c0.687-0.042,2.546,0.311,2.95-0.356c1.323-2.182-14.627-11.344-10.172-13.627c1.819-0.932,6.073,3.964,7.085,4.968
				c1.659,1.645,3.711,3.618,4.536,5.84c0.374,1.007,0.301,2.009,0.645,3.031c0.804,2.388,2.339,2.578,2.459,5.425
				c0.064,1.503,0.513,6.419,3.417,4.867c0.821-0.439,0.491-1.466,1.006-2.2c0.689-0.983,1.647-0.805,1.833-2.217
				c0.285-2.162-4.882-3.821-2.379-5.645c1.501-1.093,4.751,0.155,5.822,1.477c1.405,1.733,0.434,4.165,1.626,5.831
				c0.606,0.847,1.372,0.985,2.37,1.231c1.381,0.34,1.519,0.129,2.654,0.875c1.908,1.253,2.934,2.27,5.488,1.331
				c0.695-0.256,2.43-1.825,3.23-1.295C345.868,236.571,345.296,240.059,345.149,240.923z M353.251,226.107
				c-1.188,4.298-6.401,2.168-8.585,0.171c-1.063-0.972-2.128-2.526-3.784-2.448c-2.1,0.099-3.708,3.148-6.09,2.459
				c-6.393-1.85-0.745-13.883,4.538-13.977c1.418,0.22,0.308,5.426,2.272,7.104c1.939,1.656,4.873,0.79,3.716-1.897
				c-0.675-1.568-4.329-3.526-1.127-5.012c2.721-1.263,4.385,1.56,3.507,3.751c-0.348,0.87-1.522,0.864-1.171,2.047
				c0.202,0.68,2.411,1.764,3.001,2.165C351.451,221.777,354.026,223.302,353.251,226.107z"/>
		</g>
		<g>
			<defs>
				<circle id="SVGID_1_" cx="249.997" cy="250" r="166.936"/>
			</defs>
			<clipPath id="SVGID_00000088844645496392750210000003915476593878637722_">
				<use xlink:href="#SVGID_1_"  style="overflow:visible;"/>
			</clipPath>
			<g style="clip-path:url(#SVGID_00000088844645496392750210000003915476593878637722_);">
				<g>
					<polygon style="fill:#FFFFFF;" points="127.169,284.141 149.942,261.024 172.825,238.016 218.597,192.007 264.606,146.234 
						287.613,123.351 310.732,100.578 287.959,123.697 265.076,146.704 219.303,192.712 173.294,238.484 150.286,261.367 					"/>
				</g>
				<g>
					<polygon style="fill:#FFFFFF;" points="124.065,295.669 143.735,275.655 163.478,255.715 203.079,215.949 242.843,176.347 
						262.784,156.605 282.798,136.936 263.13,156.951 243.387,176.891 203.785,216.656 164.019,256.257 144.079,275.999 					"/>
				</g>
				<g>
					<path style="fill:#FFFFFF;" d="M155.768,289.24c5.729-6.021,11.536-11.964,17.354-17.895l17.542-17.707l17.706-17.543
						l8.911-8.714l8.986-8.639l-8.639,8.986l-8.714,8.911l-17.544,17.706l-17.707,17.542
						C167.731,277.704,161.788,283.511,155.768,289.24z"/>
				</g>
				<g>
					<path style="fill:#FFFFFF;" d="M115.863,357.522c7.059-7.351,14.196-14.624,21.344-21.886l21.533-21.698l21.696-21.534
						l10.906-10.709l10.981-10.634l-10.634,10.981l-10.709,10.906l-21.534,21.696l-21.698,21.533
						C130.487,343.326,123.213,350.462,115.863,357.522z"/>
				</g>
				<g>
					<path style="fill:#FFFFFF;" d="M150.89,373.484c8.685-8.977,17.447-17.876,26.222-26.763l26.41-26.575l26.574-26.411
						l13.345-13.148l13.42-13.073l-13.073,13.419l-13.148,13.345l-26.411,26.574l-26.575,26.41
						C168.766,356.036,159.867,364.799,150.89,373.484z"/>
				</g>
				<g>
					<path style="fill:#FFFFFF;" d="M179.267,375.257c4.768-5.06,9.614-10.043,14.472-15.013l14.66-14.825l14.824-14.661l7.47-7.273
						c2.516-2.398,5.007-4.821,7.545-7.198c-2.377,2.537-4.8,5.029-7.198,7.545l-7.273,7.47l-14.661,14.824l-14.825,14.66
						C189.31,365.643,184.327,370.489,179.267,375.257z"/>
				</g>
				<g>
					<path style="fill:#FFFFFF;" d="M222.497,370.158c3.401-3.693,6.88-7.308,10.371-10.912c3.489-3.605,7.041-7.147,10.559-10.724
						c3.575-3.519,7.119-7.069,10.723-10.56l5.419-5.222c1.832-1.715,3.64-3.454,5.494-5.147c-1.693,1.854-3.433,3.662-5.147,5.494
						l-5.222,5.419c-3.491,3.603-7.041,7.148-10.56,10.723c-3.577,3.517-7.118,7.07-10.724,10.559
						C229.806,363.278,226.19,366.757,222.497,370.158z"/>
				</g>
				<g>
					<path style="fill:#FFFFFF;" d="M235.799,354.196c7.687-7.979,15.452-15.88,23.229-23.77l23.417-23.582l23.581-23.418
						l11.848-11.651l11.923-11.577l-11.577,11.923L306.57,283.97l-23.418,23.581l-23.582,23.417
						C251.68,338.744,243.778,346.509,235.799,354.196z"/>
				</g>
				<g>
					<path style="fill:#FFFFFF;" d="M251.096,306.089c2.478-2.769,5.033-5.461,7.599-8.141c2.559-2.688,5.173-5.32,7.788-7.953
						c2.631-2.616,5.264-5.229,7.952-7.789l4.034-3.836c1.37-1.253,2.717-2.53,4.108-3.762c-1.232,1.392-2.509,2.738-3.762,4.108
						l-3.836,4.034c-2.559,2.688-5.173,5.32-7.789,7.952c-2.632,2.615-5.265,5.229-7.953,7.788
						C256.557,301.056,253.865,303.611,251.096,306.089z"/>
				</g>
				<g>
					<polygon style="fill:#FFFFFF;" points="164.414,340.451 178.652,325.869 192.963,311.36 221.701,282.458 250.602,253.719 
						265.111,239.407 279.694,225.17 265.457,239.753 251.146,254.262 222.407,283.164 193.505,311.902 178.996,326.213 					"/>
				</g>
				<g>
					<path style="fill:#FFFFFF;" d="M184.809,276.603c6.579-6.871,13.235-13.664,19.903-20.445l20.092-20.257l20.255-20.093
						l10.186-9.988l10.26-9.914l-9.914,10.26l-9.989,10.186l-20.093,20.255L205.254,256.7
						C198.473,263.368,191.68,270.024,184.809,276.603z"/>
				</g>
				<g>
					<path style="fill:#FFFFFF;" d="M220.945,215.194c3.66-3.952,7.397-7.826,11.147-11.688c3.748-3.864,7.559-7.664,11.335-11.5
						c3.833-3.778,7.636-7.587,11.498-11.336l5.807-5.61c1.962-1.844,3.899-3.713,5.882-5.535c-1.823,1.983-3.691,3.92-5.535,5.882
						l-5.61,5.807c-3.749,3.862-7.558,7.665-11.336,11.498c-3.835,3.776-7.636,7.587-11.5,11.335
						C228.771,207.797,224.897,211.534,220.945,215.194z"/>
				</g>
				<g>
					<path style="fill:#FFFFFF;" d="M271.096,168.148c3.209-3.5,6.495-6.923,9.793-10.334c3.296-3.413,6.656-6.762,9.981-10.146
						c3.382-3.327,6.734-6.684,10.145-9.982l5.13-4.933c1.736-1.618,3.448-3.261,5.205-4.858c-1.597,1.757-3.24,3.469-4.858,5.205
						l-4.933,5.13c-3.298,3.411-6.655,6.762-9.982,10.145c-3.384,3.325-6.733,6.685-10.146,9.981
						C278.019,161.653,274.596,164.939,271.096,168.148z"/>
				</g>
				<g>
					<path style="fill:#FFFFFF;" d="M310.288,150.681c2.441-2.732,4.959-5.387,7.489-8.03c2.522-2.651,5.099-5.247,7.677-7.842
						c2.594-2.579,5.19-5.156,7.841-7.678l3.978-3.781c1.352-1.234,2.68-2.493,4.053-3.706c-1.213,1.373-2.472,2.701-3.706,4.053
						l-3.781,3.978c-2.522,2.65-5.099,5.246-7.678,7.841c-2.595,2.578-5.191,5.155-7.842,7.677
						C315.675,145.722,313.02,148.24,310.288,150.681z"/>
				</g>
				<g>
					<path style="fill:#FFFFFF;" d="M315.387,177.063c4.177-4.469,8.432-8.86,12.698-13.24c4.265-4.381,8.593-8.699,12.887-13.051
						c4.351-4.295,8.671-8.621,13.05-12.888l6.583-6.386c2.22-2.103,4.416-4.23,6.658-6.311c-2.081,2.242-4.208,4.438-6.311,6.658
						l-6.386,6.583c-4.267,4.379-8.593,8.7-12.888,13.05c-4.353,4.294-8.67,8.622-13.051,12.887
						C324.247,168.631,319.856,172.885,315.387,177.063z"/>
				</g>
				<g>
					<path style="fill:#FFFFFF;" d="M238.238,382.795c4.547-4.838,9.171-9.599,13.807-14.348c4.634-4.751,9.332-9.438,13.995-14.16
						l14.159-13.996l7.137-6.94c2.405-2.288,4.786-4.599,7.212-6.866c-2.266,2.426-4.578,4.807-6.865,7.212l-6.94,7.138
						l-13.996,14.159c-4.722,4.663-9.409,9.361-14.16,13.995C247.837,373.624,243.076,378.248,238.238,382.795z"/>
				</g>
				<g>
					<path style="fill:#FFFFFF;" d="M214.516,390.554c2.884-3.176,5.846-6.274,8.819-9.36c2.972-3.088,6.007-6.112,9.007-9.172
						c3.057-3.002,6.085-6.035,9.171-9.008l4.643-4.446c1.574-1.456,3.123-2.937,4.718-4.371c-1.435,1.595-2.915,3.144-4.371,4.718
						l-4.446,4.643c-2.973,3.086-6.006,6.113-9.008,9.171c-3.059,3-6.084,6.035-9.172,9.007
						C220.79,384.708,217.692,387.67,214.516,390.554z"/>
				</g>
				<g>
					<path style="fill:#FFFFFF;" d="M152.442,420.261c3.845-4.136,7.767-8.195,11.701-12.242c3.932-4.049,7.928-8.034,11.889-12.054
						c4.018-3.963,8.006-7.956,12.053-11.89l6.084-5.887c2.054-1.936,4.084-3.897,6.159-5.812c-1.915,2.075-3.876,4.105-5.812,6.159
						l-5.887,6.084c-3.934,4.047-7.927,8.035-11.89,12.053c-4.02,3.961-8.005,7.957-12.054,11.889
						C160.637,412.494,156.578,416.416,152.442,420.261z"/>
				</g>
				<g>
					<path style="fill:#FFFFFF;" d="M190.574,411.837c2.382-2.938,4.979-5.663,7.628-8.334c2.67-2.65,5.394-5.247,8.334-7.628
						c-2.381,2.94-4.977,5.664-7.628,8.334C196.236,406.858,193.512,409.454,190.574,411.837z"/>
				</g>
				<g>
					<path style="fill:#FFFFFF;" d="M191.238,432.454c2.847-3.139,5.772-6.2,8.708-9.249c2.935-3.051,5.933-6.039,8.896-9.061
						c3.021-2.965,6.011-5.961,9.06-8.897l4.588-4.391c1.555-1.438,3.086-2.9,4.663-4.316c-1.416,1.577-2.878,3.107-4.316,4.663
						l-4.391,4.588c-2.936,3.049-5.932,6.039-8.897,9.06c-3.022,2.963-6.01,5.962-9.061,8.896
						C197.438,426.683,194.377,429.607,191.238,432.454z"/>
				</g>
				<g>
					<path style="fill:#FFFFFF;" d="M217.842,424.473c3.143-3.434,6.363-6.791,9.595-10.136c3.23-3.347,6.524-6.63,9.783-9.948
						c3.316-3.261,6.602-6.552,9.947-9.784l5.031-4.834c1.703-1.586,3.382-3.195,5.106-4.759c-1.564,1.724-3.174,3.403-4.759,5.106
						l-4.834,5.031c-3.232,3.345-6.523,6.63-9.784,9.947c-3.318,3.259-6.601,6.553-9.948,9.783
						C224.633,418.11,221.276,421.331,217.842,424.473z"/>
				</g>
				<g>
					<path style="fill:#FFFFFF;" d="M241.563,413.61c5.175-5.466,10.427-10.855,15.691-16.233l15.88-16.044l16.043-15.881
						l8.08-7.882l8.154-7.808l-7.808,8.154l-7.882,8.08l-15.881,16.043l-16.044,15.88
						C252.418,403.183,247.03,408.435,241.563,413.61z"/>
				</g>
				<g>
					<path style="fill:#FFFFFF;" d="M310.288,372.819c5.175-5.467,10.427-10.855,15.691-16.233l15.88-16.044l16.043-15.881
						l8.08-7.882l8.154-7.808l-7.808,8.154l-7.882,8.08l-15.881,16.043l-16.044,15.879
						C321.144,362.391,315.755,367.644,310.288,372.819z"/>
				</g>
				<g>
					<path style="fill:#FFFFFF;" d="M363.716,314.956c2.33-2.621,4.737-5.165,7.156-7.697c2.411-2.54,4.877-5.025,7.344-7.509
						c2.484-2.468,4.969-4.934,7.508-7.345l3.812-3.615c1.296-1.179,2.569-2.382,3.887-3.54c-1.158,1.318-2.361,2.59-3.54,3.887
						l-3.615,3.812c-2.411,2.54-4.878,5.025-7.345,7.508c-2.484,2.467-4.969,4.933-7.509,7.344
						C368.882,310.219,366.338,312.627,363.716,314.956z"/>
				</g>
				<g>
					<path style="fill:#FFFFFF;" d="M354.184,360.847c3.919-4.21,7.915-8.343,11.922-12.464c4.006-4.123,8.076-8.182,12.111-12.276
						c4.092-4.037,8.154-8.104,12.274-12.112l6.195-5.998c2.091-1.973,4.158-3.971,6.27-5.923c-1.952,2.112-3.95,4.179-5.923,6.27
						l-5.998,6.195c-4.008,4.121-8.075,8.182-12.112,12.274c-4.094,4.035-8.153,8.105-12.276,12.111
						C362.527,352.932,358.394,356.928,354.184,360.847z"/>
				</g>
				<g>
					<path style="fill:#FFFFFF;" d="M310.732,388.78c7.466-7.757,15.009-15.437,22.564-23.105l22.752-22.917l22.916-22.753
						l11.516-11.319l11.59-11.244l-11.244,11.591l-11.319,11.516l-22.753,22.916l-22.917,22.752
						C326.169,373.772,318.489,381.315,310.732,388.78z"/>
				</g>
				<g>
					<path style="fill:#FFFFFF;" d="M264.619,414.497c3.253-3.545,6.584-7.013,9.927-10.469c3.341-3.457,6.746-6.852,10.116-10.28
						c3.427-3.372,6.823-6.774,10.279-10.117l5.198-5c1.758-1.641,3.492-3.306,5.272-4.926c-1.619,1.78-3.285,3.514-4.926,5.272
						l-5,5.198c-3.343,3.456-6.745,6.852-10.117,10.279c-3.429,3.37-6.823,6.774-10.28,10.115
						C271.632,407.913,268.164,411.243,264.619,414.497z"/>
				</g>
				<g>
					<path style="fill:#FFFFFF;" d="M254.2,413.832c3.808-4.099,7.693-8.121,11.59-12.131c3.895-4.012,7.854-7.96,11.778-11.943
						c3.981-3.926,7.932-7.882,11.942-11.78l6.029-5.832c2.036-1.918,4.047-3.861,6.104-5.757c-1.897,2.057-3.839,4.068-5.757,6.104
						l-5.832,6.029c-3.897,4.01-7.854,7.961-11.78,11.942c-3.983,3.924-7.931,7.883-11.943,11.778
						C262.321,406.139,258.299,410.024,254.2,413.832z"/>
				</g>
				<g>
					<path style="fill:#FFFFFF;" d="M261.959,435.336c3.401-3.693,6.88-7.308,10.371-10.912c3.489-3.605,7.041-7.147,10.559-10.724
						c3.575-3.519,7.119-7.069,10.723-10.56l5.419-5.222c1.832-1.715,3.64-3.454,5.494-5.147c-1.693,1.854-3.432,3.662-5.147,5.494
						l-5.222,5.419c-3.491,3.603-7.041,7.148-10.56,10.723c-3.577,3.518-7.118,7.07-10.724,10.559
						C269.267,428.456,265.652,431.935,261.959,435.336z"/>
				</g>
				<g>
					<path style="fill:#FFFFFF;" d="M291.666,429.572c4.436-4.728,8.949-9.378,13.474-14.016c4.523-4.64,9.111-9.216,13.663-13.827
						l13.826-13.664l6.971-6.774c2.35-2.232,4.675-4.488,7.046-6.699c-2.211,2.371-4.467,4.696-6.699,7.046l-6.774,6.971
						l-13.664,13.826c-4.611,4.552-9.188,9.139-13.827,13.663C301.043,420.623,296.393,425.136,291.666,429.572z"/>
				</g>
				<g>
					<path style="fill:#FFFFFF;" d="M284.793,425.36c3.512-3.804,7.102-7.53,10.703-11.245c3.6-3.716,7.263-7.369,10.891-11.056
						c3.686-3.63,7.341-7.291,11.055-10.893l5.586-5.388c1.888-1.77,3.751-3.565,5.66-5.314c-1.749,1.909-3.543,3.772-5.314,5.66
						l-5.388,5.586c-3.602,3.714-7.262,7.369-10.893,11.055c-3.688,3.628-7.34,7.292-11.056,10.891
						C292.323,418.258,288.597,421.848,284.793,425.36z"/>
				</g>
				<g>
					<path style="fill:#FFFFFF;" d="M324.698,406.738c5.951-6.242,11.979-12.407,18.019-18.561l18.207-18.372l18.371-18.209
						l9.243-9.046l9.318-8.972l-8.972,9.318l-9.046,9.243l-18.209,18.371l-18.372,18.207
						C337.106,394.759,330.941,400.787,324.698,406.738z"/>
				</g>
				<g>
					<path style="fill:#FFFFFF;" d="M332.679,377.474c2.308-2.865,4.831-5.515,7.406-8.113c2.596-2.576,5.246-5.099,8.113-7.406
						c-2.307,2.866-4.829,5.516-7.406,8.113C338.194,372.643,335.544,375.166,332.679,377.474z"/>
				</g>
				<g>
					<path style="fill:#FFFFFF;" d="M105.443,351.979c3.106-3.397,6.289-6.717,9.484-10.025c3.193-3.31,6.45-6.556,9.672-9.837
						c3.279-3.224,6.528-6.478,9.836-9.673l4.976-4.779c1.685-1.567,3.345-3.158,5.051-4.704c-1.546,1.706-3.137,3.366-4.704,5.051
						l-4.779,4.976c-3.195,3.308-6.449,6.556-9.673,9.836c-3.281,3.222-6.527,6.479-9.837,9.672
						C112.16,345.69,108.84,348.874,105.443,351.979z"/>
				</g>
				<g>
					<path style="fill:#FFFFFF;" d="M113.646,326.041c2.182-2.474,4.441-4.87,6.713-7.254c2.263-2.392,4.582-4.729,6.901-7.066
						c2.336-2.32,4.673-4.638,7.065-6.902l3.59-3.393c1.223-1.105,2.421-2.235,3.665-3.318c-1.084,1.244-2.213,2.442-3.318,3.665
						l-3.393,3.59c-2.264,2.392-4.582,4.729-6.902,7.065c-2.337,2.319-4.674,4.637-7.066,6.901
						C118.515,321.6,116.119,323.859,113.646,326.041z"/>
				</g>
				<g>
					<path style="fill:#FFFFFF;" d="M87.486,332.249c1.96-2.252,3.998-4.426,6.048-6.589c2.041-2.171,4.138-4.286,6.236-6.401
						c2.114-2.098,4.229-4.195,6.4-6.237l3.258-3.06c1.112-0.994,2.199-2.013,3.332-2.986c-0.973,1.133-1.992,2.221-2.986,3.332
						l-3.061,3.258c-2.042,2.17-4.139,4.286-6.237,6.4c-2.115,2.097-4.23,4.194-6.401,6.236
						C91.912,328.25,89.738,330.288,87.486,332.249z"/>
				</g>
				<g>
					<path style="fill:#FFFFFF;" d="M89.259,316.73c2.404-2.695,4.885-5.313,7.378-7.919c2.485-2.614,5.025-5.173,7.566-7.731
						c2.557-2.542,5.116-5.082,7.73-7.567l3.923-3.726c1.334-1.216,2.643-2.456,3.998-3.651c-1.195,1.355-2.435,2.664-3.651,3.998
						l-3.726,3.923c-2.485,2.614-5.026,5.172-7.567,7.73c-2.558,2.541-5.117,5.081-7.731,7.566
						C94.572,311.845,91.955,314.326,89.259,316.73z"/>
				</g>
				<g>
					<path style="fill:#FFFFFF;" d="M84.825,299.438c2.551-2.843,5.18-5.609,7.821-8.363c2.639-2.755,5.342-5.447,8.009-8.174
						c2.725-2.67,5.419-5.37,8.173-8.011l4.145-3.947c1.407-1.29,2.79-2.604,4.219-3.873c-1.268,1.429-2.583,2.812-3.873,4.219
						l-3.947,4.145c-2.641,2.754-5.341,5.448-8.011,8.173c-2.727,2.668-5.419,5.37-8.174,8.009
						C90.434,294.257,87.669,296.886,84.825,299.438z"/>
				</g>
				<g>
					<path style="fill:#FFFFFF;" d="M99.679,296.999c4.436-4.728,8.949-9.378,13.474-14.016c4.523-4.64,9.11-9.216,13.663-13.827
						l13.826-13.664l6.971-6.774c2.35-2.232,4.675-4.488,7.046-6.699c-2.211,2.371-4.467,4.696-6.699,7.046l-6.774,6.971
						l-13.664,13.826c-4.611,4.552-9.188,9.139-13.827,13.663C109.056,288.05,104.406,292.563,99.679,296.999z"/>
				</g>
				<g>
					<path style="fill:#FFFFFF;" d="M124.287,362.399c4.621-4.912,9.319-9.747,14.029-14.57c4.708-4.825,9.48-9.586,14.217-14.382
						l14.38-14.218l7.248-7.051c2.442-2.324,4.86-4.673,7.323-6.976c-2.303,2.463-4.652,4.881-6.976,7.323l-7.051,7.248
						l-14.218,14.38c-4.796,4.737-9.557,9.509-14.382,14.217C134.034,353.08,129.199,357.778,124.287,362.399z"/>
				</g>
				<g>
					<path style="fill:#FFFFFF;" d="M122.07,378.361c2.034-2.326,4.146-4.574,6.269-6.811c2.115-2.245,4.286-4.434,6.457-6.622
						c2.188-2.172,4.377-4.343,6.621-6.459l3.369-3.171c1.149-1.031,2.273-2.087,3.443-3.097c-1.01,1.17-2.065,2.295-3.097,3.443
						l-3.171,3.369c-2.116,2.244-4.286,4.433-6.459,6.621c-2.189,2.171-4.378,4.342-6.623,6.457
						C126.644,374.215,124.396,376.327,122.07,378.361z"/>
				</g>
				<g>
					<path style="fill:#FFFFFF;" d="M140.027,373.262c1.997-2.289,4.072-4.5,6.158-6.7c2.078-2.208,4.212-4.36,6.346-6.512
						c2.151-2.135,4.303-4.269,6.511-6.348l3.313-3.116c1.13-1.013,2.236-2.05,3.388-3.041c-0.991,1.152-2.028,2.258-3.041,3.388
						l-3.116,3.313c-2.079,2.207-4.213,4.359-6.348,6.51c-2.152,2.134-4.304,4.268-6.512,6.346
						C144.527,369.19,142.316,371.265,140.027,373.262z"/>
				</g>
				<g>
					<path style="fill:#FFFFFF;" d="M148.292,395.147c1.433-1.724,2.943-3.371,4.465-5.006c1.514-1.643,3.083-3.231,4.653-4.818
						c1.586-1.57,3.174-3.139,4.817-4.654l2.466-2.269c0.848-0.73,1.672-1.485,2.541-2.194c-0.709,0.869-1.464,1.693-2.194,2.541
						l-2.269,2.466c-1.514,1.642-3.083,3.23-4.654,4.817c-1.587,1.57-3.175,3.139-4.818,4.653
						C151.663,392.205,150.016,393.715,148.292,395.147z"/>
				</g>
				<g>
					<path style="fill:#FFFFFF;" d="M146.235,389.667c1.643-2.199,3.501-4.185,5.411-6.117c1.931-1.911,3.916-3.769,6.117-5.411
						c-1.642,2.201-3.499,4.186-5.411,6.117C150.419,386.167,148.434,388.024,146.235,389.667z"/>
				</g>
				<g>
					<path style="fill:#FFFFFF;" d="M185.475,306.089c3.734-4.025,7.545-7.973,11.368-11.91c3.821-3.938,7.706-7.812,11.557-11.721
						c3.907-3.852,7.784-7.734,11.72-11.558l5.918-5.721c1.999-1.881,3.973-3.786,5.993-5.646c-1.86,2.02-3.765,3.994-5.646,5.993
						l-5.721,5.918c-3.823,3.936-7.706,7.813-11.558,11.72c-3.909,3.85-7.783,7.735-11.721,11.557
						C193.448,298.543,189.5,302.355,185.475,306.089z"/>
				</g>
				<g>
					<path style="fill:#FFFFFF;" d="M193.677,284.141c5.618-5.91,11.314-11.742,17.021-17.563l17.21-17.374l17.373-17.211
						l8.745-8.547l8.819-8.473l-8.473,8.819l-8.548,8.745l-17.211,17.373l-17.375,17.21
						C205.419,272.827,199.587,278.523,193.677,284.141z"/>
				</g>
				<g>
					<path style="fill:#FFFFFF;" d="M277.699,171.299c2.478-2.769,5.033-5.461,7.599-8.141c2.559-2.688,5.173-5.321,7.788-7.953
						c2.631-2.615,5.264-5.229,7.952-7.789l4.034-3.836c1.37-1.253,2.717-2.53,4.108-3.762c-1.232,1.392-2.509,2.738-3.762,4.108
						l-3.836,4.034c-2.559,2.687-5.173,5.32-7.789,7.951c-2.632,2.615-5.265,5.229-7.953,7.788
						C283.16,166.266,280.468,168.821,277.699,171.299z"/>
				</g>
				<g>
					<path style="fill:#FFFFFF;" d="M222.054,228.274c2.884-3.176,5.845-6.274,8.819-9.36c2.972-3.088,6.007-6.113,9.007-9.172
						c3.057-3.002,6.085-6.035,9.171-9.008l4.643-4.446c1.574-1.456,3.123-2.937,4.718-4.371c-1.435,1.595-2.915,3.144-4.371,4.718
						l-4.446,4.643c-2.974,3.086-6.006,6.113-9.008,9.171c-3.059,3-6.084,6.036-9.172,9.007
						C228.328,222.428,225.23,225.39,222.054,228.274z"/>
				</g>
				<g>
					<path style="fill:#FFFFFF;" d="M183.258,248.005c1.665-1.956,3.407-3.835,5.161-5.702c1.746-1.875,3.547-3.695,5.349-5.514
						c1.818-1.803,3.638-3.604,5.513-5.35l2.814-2.617c0.964-0.846,1.904-1.717,2.889-2.542c-0.825,0.986-1.696,1.925-2.542,2.889
						l-2.617,2.814c-1.746,1.875-3.548,3.695-5.35,5.513c-1.819,1.802-3.639,3.603-5.514,5.349
						C187.093,244.598,185.214,246.34,183.258,248.005z"/>
				</g>
				<g>
					<path style="fill:#FFFFFF;" d="M165.079,267.514c1.717-2.273,3.649-4.332,5.632-6.339c2.005-1.985,4.064-3.917,6.339-5.632
						c-1.715,2.275-3.647,4.334-5.632,6.339C169.411,263.865,167.352,265.797,165.079,267.514z"/>
				</g>
				<g>
					<path style="fill:#FFFFFF;" d="M211.634,355.748c2.161-2.717,4.535-5.219,6.962-7.669c2.449-2.429,4.951-4.804,7.669-6.963
						c-2.159,2.718-4.534,5.221-6.963,7.669C216.854,351.213,214.351,353.587,211.634,355.748z"/>
				</g>
				<g>
					<path style="fill:#FFFFFF;" d="M227.153,346.88c2.034-2.326,4.146-4.574,6.269-6.811c2.115-2.245,4.286-4.434,6.457-6.623
						c2.188-2.172,4.377-4.343,6.621-6.459l3.369-3.171c1.149-1.031,2.273-2.087,3.443-3.097c-1.01,1.17-2.065,2.295-3.097,3.443
						l-3.171,3.369c-2.116,2.244-4.286,4.434-6.459,6.621c-2.189,2.171-4.378,4.342-6.623,6.457
						C231.727,342.734,229.479,344.846,227.153,346.88z"/>
				</g>
				<g>
					<path style="fill:#FFFFFF;" d="M207.201,377.917c1.569-2.125,3.353-4.037,5.189-5.896c1.857-1.837,3.769-3.621,5.896-5.189
						c-1.568,2.127-3.352,4.038-5.189,5.896C211.237,374.565,209.326,376.348,207.201,377.917z"/>
				</g>
				<g>
					<path style="fill:#FFFFFF;" d="M192.347,398.092c1.939-2.495,4.092-4.776,6.298-7.004c2.227-2.207,4.507-4.36,7.004-6.297
						c-1.937,2.497-4.09,4.777-6.298,7.004C197.123,394,194.842,396.153,192.347,398.092z"/>
				</g>
				<g>
					<path style="fill:#FFFFFF;" d="M247.105,330.918c2.404-2.695,4.885-5.313,7.378-7.919c2.485-2.614,5.025-5.173,7.566-7.731
						c2.557-2.542,5.116-5.082,7.73-7.567l3.923-3.726c1.333-1.216,2.643-2.456,3.997-3.651c-1.195,1.355-2.435,2.664-3.651,3.998
						l-3.726,3.923c-2.485,2.614-5.026,5.172-7.567,7.73c-2.558,2.541-5.117,5.081-7.731,7.566
						C252.418,326.034,249.801,328.515,247.105,330.918z"/>
				</g>
				<g>
					<path style="fill:#FFFFFF;" d="M214.516,327.15c1.702-1.993,3.481-3.909,5.272-5.813c1.783-1.912,3.621-3.769,5.46-5.625
						c1.855-1.84,3.712-3.678,5.624-5.461l2.87-2.672c0.983-0.865,1.941-1.754,2.945-2.598c-0.843,1.004-1.733,1.962-2.598,2.944
						l-2.673,2.87c-1.783,1.912-3.621,3.768-5.461,5.624c-1.856,1.839-3.713,3.677-5.625,5.46
						C218.425,323.669,216.51,325.448,214.516,327.15z"/>
				</g>
				<g>
					<path style="fill:#FFFFFF;" d="M195.007,344.885c1.051-1.609,2.319-3.002,3.637-4.344c1.34-1.32,2.733-2.587,4.344-3.637
						c-1.05,1.61-2.317,3.003-3.637,4.344C198.009,342.566,196.616,343.834,195.007,344.885z"/>
				</g>
				<g>
					<path style="fill:#FFFFFF;" d="M182.592,364.837c1.199-1.757,2.615-3.297,4.081-4.787c1.488-1.468,3.029-2.883,4.787-4.081
						c-1.198,1.758-2.613,3.299-4.08,4.787C185.89,362.223,184.349,363.638,182.592,364.837z"/>
				</g>
				<g>
					<path style="fill:#FFFFFF;" d="M244.667,389.224c2.441-2.732,4.959-5.387,7.489-8.03c2.522-2.651,5.099-5.247,7.677-7.842
						c2.594-2.578,5.19-5.155,7.841-7.678l3.978-3.781c1.352-1.234,2.68-2.493,4.053-3.706c-1.213,1.373-2.472,2.701-3.706,4.053
						l-3.781,3.978c-2.522,2.651-5.099,5.246-7.678,7.841c-2.595,2.578-5.191,5.155-7.842,7.677
						C250.054,384.265,247.399,386.783,244.667,389.224z"/>
				</g>
				<g>
					<path style="fill:#FFFFFF;" d="M222.941,411.393c2.234-2.79,4.683-5.367,7.184-7.891c2.522-2.503,5.099-4.951,7.891-7.184
						c-2.233,2.792-4.682,5.368-7.184,7.891C228.308,406.71,225.731,409.159,222.941,411.393z"/>
				</g>
				<g>
					<path style="fill:#FFFFFF;" d="M206.757,406.738c2.308-2.865,4.831-5.515,7.406-8.113c2.596-2.576,5.246-5.099,8.113-7.406
						c-2.307,2.866-4.829,5.516-7.406,8.113C212.272,401.907,209.622,404.429,206.757,406.738z"/>
				</g>
				<g>
					<path style="fill:#FFFFFF;" d="M335.783,335.796c1.517-1.809,3.111-3.54,4.717-5.259c1.598-1.727,3.252-3.399,4.905-5.071
						c1.671-1.655,3.343-3.308,5.07-4.907l2.593-2.395c0.89-0.773,1.756-1.57,2.667-2.321c-0.751,0.911-1.548,1.777-2.321,2.667
						l-2.396,2.593c-1.599,1.727-3.252,3.399-4.907,5.069c-1.672,1.654-3.343,3.307-5.071,4.905
						C339.323,332.684,337.592,334.279,335.783,335.796z"/>
				</g>
				<g>
					<path style="fill:#FFFFFF;" d="M310.732,135.606c2.219-2.511,4.515-4.944,6.823-7.365c2.3-2.429,4.656-4.803,7.012-7.177
						c2.373-2.357,4.747-4.712,7.176-7.013l3.646-3.449c1.241-1.124,2.458-2.272,3.72-3.374c-1.102,1.263-2.25,2.479-3.374,3.721
						l-3.448,3.646c-2.301,2.429-4.656,4.803-7.013,7.176c-2.374,2.356-4.748,4.712-7.177,7.012
						C315.675,131.091,313.242,133.387,310.732,135.606z"/>
				</g>
				<g>
					<path style="fill:#FFFFFF;" d="M309.623,121.196c1.96-2.252,3.998-4.426,6.048-6.589c2.042-2.171,4.138-4.286,6.236-6.401
						c2.114-2.098,4.229-4.195,6.4-6.237l3.258-3.061c1.112-0.994,2.199-2.013,3.333-2.986c-0.973,1.133-1.992,2.221-2.986,3.332
						l-3.061,3.258c-2.042,2.17-4.139,4.286-6.237,6.4c-2.115,2.097-4.23,4.194-6.401,6.236
						C314.049,117.198,311.875,119.235,309.623,121.196z"/>
				</g>
				<g>
					<path style="fill:#FFFFFF;" d="M282.133,146.025c2.308-2.865,4.831-5.515,7.406-8.113c2.596-2.577,5.246-5.099,8.113-7.406
						c-2.307,2.866-4.829,5.516-7.406,8.113C287.648,141.195,284.998,143.717,282.133,146.025z"/>
				</g>
				<g>
					<path style="fill:#FFFFFF;" d="M261.959,168.86c1.199-1.757,2.615-3.297,4.081-4.787c1.488-1.468,3.029-2.883,4.787-4.081
						c-1.198,1.758-2.613,3.299-4.081,4.787C265.256,166.245,263.716,167.661,261.959,168.86z"/>
				</g>
				<g>
					<path style="fill:#FFFFFF;" d="M212.521,216.081c2.308-2.865,4.831-5.515,7.406-8.113c2.596-2.577,5.247-5.099,8.113-7.406
						c-2.307,2.866-4.829,5.516-7.406,8.113C218.036,211.25,215.386,213.772,212.521,216.081z"/>
				</g>
				<g>
					<path style="fill:#FFFFFF;" d="M326.694,146.247c2.087-2.643,4.387-5.071,6.741-7.447c2.375-2.355,4.803-4.656,7.448-6.741
						c-2.085,2.644-4.386,5.073-6.741,7.447C331.765,141.86,329.336,144.161,326.694,146.247z"/>
				</g>
				<g>
					<path style="fill:#FFFFFF;" d="M347.976,128.512c1.347-1.905,2.91-3.593,4.524-5.231c1.636-1.615,3.324-3.178,5.231-4.524
						c-1.345,1.906-2.908,3.595-4.524,5.231C351.569,125.602,349.881,127.165,347.976,128.512z"/>
				</g>
				<g>
					<path style="fill:#FFFFFF;" d="M333.566,152.233c1.717-2.273,3.649-4.332,5.632-6.339c2.005-1.985,4.064-3.917,6.339-5.632
						c-1.716,2.275-3.647,4.334-5.632,6.339C337.898,148.584,335.839,150.516,333.566,152.233z"/>
				</g>
				<g>
					<path style="fill:#FFFFFF;" d="M299.425,248.891c1.443-1.735,2.964-3.392,4.496-5.037c1.524-1.654,3.104-3.251,4.684-4.849
						c1.597-1.581,3.195-3.16,4.848-4.685l2.482-2.285c0.853-0.736,1.682-1.496,2.557-2.21c-0.714,0.874-1.474,1.703-2.21,2.557
						l-2.285,2.482c-1.525,1.653-3.104,3.251-4.685,4.848c-1.598,1.58-3.196,3.16-4.849,4.684
						C302.817,245.928,301.16,247.449,299.425,248.891z"/>
				</g>
				<g>
					<path style="fill:#FFFFFF;" d="M309.623,254.656c2.108-2.4,4.294-4.722,6.491-7.032c2.189-2.318,4.434-4.581,6.679-6.844
						c2.262-2.246,4.525-4.49,6.843-6.68l3.479-3.282c1.186-1.068,2.347-2.161,3.554-3.208c-1.047,1.207-2.139,2.368-3.208,3.554
						l-3.282,3.479c-2.19,2.318-4.434,4.581-6.68,6.843c-2.263,2.245-4.526,4.49-6.844,6.679
						C314.345,250.362,312.023,252.548,309.623,254.656z"/>
				</g>
				<g>
					<path style="fill:#FFFFFF;" d="M325.585,255.542c1.739-2.03,3.555-3.983,5.383-5.924c1.82-1.949,3.695-3.842,5.571-5.736
						c1.892-1.876,3.786-3.751,5.735-5.572l2.925-2.728c1.001-0.883,1.977-1.791,3-2.653c-0.862,1.022-1.77,1.999-2.653,3
						l-2.728,2.925c-1.82,1.949-3.695,3.842-5.572,5.735c-1.893,1.876-3.787,3.751-5.736,5.571
						C329.568,251.988,327.615,253.804,325.585,255.542z"/>
				</g>
				<g>
					<path style="fill:#FFFFFF;" d="M284.35,230.713c2.308-2.865,4.831-5.515,7.406-8.113c2.596-2.577,5.246-5.099,8.113-7.406
						c-2.307,2.866-4.829,5.516-7.406,8.113C289.865,225.882,287.214,228.404,284.35,230.713z"/>
				</g>
				<g>
					<path style="fill:#FFFFFF;" d="M291.157,239.585c2.383-2.939,4.981-5.665,7.631-8.338c2.671-2.651,5.397-5.249,8.338-7.631
						c-2.382,2.941-4.979,5.666-7.631,8.338C296.822,234.604,294.096,237.201,291.157,239.585z"/>
				</g>
				<g>
					<path style="fill:#FFFFFF;" d="M241.341,301.655c0.83-1.387,1.875-2.558,2.972-3.679c1.119-1.098,2.29-2.144,3.679-2.972
						c-0.828,1.389-1.874,2.56-2.972,3.679C243.9,299.779,242.729,300.825,241.341,301.655z"/>
				</g>
				<g>
					<path style="fill:#FFFFFF;" d="M241.12,321.829c1.199-1.757,2.615-3.297,4.081-4.787c1.488-1.468,3.029-2.883,4.787-4.081
						c-1.198,1.758-2.613,3.299-4.081,4.787C244.417,319.214,242.876,320.63,241.12,321.829z"/>
				</g>
				<g>
					<path style="fill:#FFFFFF;" d="M230.478,334.687c0.46-1.018,1.137-1.819,1.864-2.57c0.749-0.729,1.551-1.405,2.57-1.864
						c-0.459,1.019-1.135,1.821-1.864,2.57C232.298,333.551,231.496,334.227,230.478,334.687z"/>
				</g>
				<g>
					<path style="fill:#FFFFFF;" d="M360.613,306.532c1.443-1.735,2.963-3.392,4.496-5.037c1.524-1.653,3.104-3.251,4.684-4.849
						c1.597-1.581,3.195-3.16,4.848-4.685l2.482-2.285c0.853-0.736,1.682-1.496,2.557-2.21c-0.714,0.875-1.474,1.703-2.21,2.556
						l-2.285,2.482c-1.525,1.653-3.104,3.251-4.685,4.848c-1.598,1.58-3.196,3.16-4.849,4.684
						C364.004,303.569,362.347,305.089,360.613,306.532z"/>
				</g>
				<g>
					<path style="fill:#FFFFFF;" d="M373.028,285.249c2.161-2.717,4.535-5.219,6.963-7.669c2.449-2.429,4.951-4.804,7.669-6.962
						c-2.159,2.718-4.534,5.221-6.963,7.669C378.247,280.714,375.744,283.089,373.028,285.249z"/>
				</g>
				<g>
					<path style="fill:#FFFFFF;" d="M370.138,270.148c0.994-1.552,2.205-2.888,3.466-4.173c1.284-1.263,2.619-2.473,4.173-3.466
						c-0.993,1.553-2.203,2.889-3.466,4.173C373.026,267.943,371.69,269.154,370.138,270.148z"/>
				</g>
				<g>
					<path style="fill:#FFFFFF;" d="M344.429,285.914c0.904-1.461,2.023-2.706,3.194-3.9c1.193-1.172,2.438-2.292,3.9-3.194
						c-0.902,1.463-2.022,2.708-3.194,3.901C347.135,283.891,345.89,285.011,344.429,285.914z"/>
				</g>
				<g>
					<path style="fill:#FFFFFF;" d="M353.519,338.899c1.421-1.978,3.058-3.741,4.746-5.452c1.71-1.689,3.472-3.326,5.452-4.746
						c-1.419,1.98-3.056,3.742-4.746,5.452C357.259,335.841,355.497,337.478,353.519,338.899z"/>
				</g>
				<g>
					<path style="fill:#FFFFFF;" d="M370.589,323.602c1.939-2.495,4.092-4.776,6.298-7.004c2.227-2.207,4.508-4.36,7.004-6.297
						c-1.937,2.497-4.09,4.777-6.297,7.004C375.365,319.51,373.084,321.664,370.589,323.602z"/>
				</g>
				<g>
					<path style="fill:#FFFFFF;" d="M362.83,360.182c1.421-1.978,3.058-3.741,4.746-5.452c1.71-1.689,3.472-3.326,5.452-4.746
						c-1.419,1.98-3.056,3.742-4.746,5.452C366.57,357.124,364.808,358.761,362.83,360.182z"/>
				</g>
				<g>
					<path style="fill:#FFFFFF;" d="M255.973,352.201c2.161-2.717,4.535-5.219,6.963-7.669c2.449-2.429,4.951-4.804,7.669-6.962
						c-2.159,2.718-4.534,5.221-6.963,7.669C261.192,347.666,258.69,350.04,255.973,352.201z"/>
				</g>
				<g>
					<path style="fill:#FFFFFF;" d="M273.265,334.909c1.569-2.126,3.353-4.037,5.189-5.896c1.857-1.837,3.769-3.621,5.896-5.189
						c-1.568,2.127-3.352,4.038-5.189,5.896C277.302,331.556,275.391,333.339,273.265,334.909z"/>
				</g>
				<g>
					<path style="fill:#FFFFFF;" d="M173.503,287.023c0.534-1.092,1.284-1.967,2.085-2.792c0.823-0.802,1.699-1.553,2.792-2.085
						c-0.533,1.093-1.283,1.969-2.085,2.792C175.47,285.739,174.595,286.489,173.503,287.023z"/>
				</g>
				<g>
					<path style="fill:#FFFFFF;" d="M210.969,258.868c1.791-2.347,3.796-4.48,5.854-6.561c2.079-2.059,4.212-4.065,6.561-5.854
						c-1.79,2.349-3.795,4.482-5.854,6.561C215.449,255.071,213.316,257.077,210.969,258.868z"/>
				</g>
				<g>
					<path style="fill:#FFFFFF;" d="M165.522,239.137c2.404-2.695,4.885-5.313,7.378-7.919c2.485-2.614,5.025-5.173,7.566-7.731
						c2.557-2.542,5.116-5.082,7.73-7.567l3.923-3.726c1.333-1.216,2.643-2.456,3.997-3.651c-1.195,1.355-2.435,2.664-3.651,3.998
						l-3.726,3.923c-2.485,2.614-5.025,5.172-7.567,7.73c-2.558,2.54-5.117,5.081-7.731,7.566
						C170.835,234.252,168.217,236.733,165.522,239.137z"/>
				</g>
				<g>
					<path style="fill:#FFFFFF;" d="M145.126,245.788c3.66-3.952,7.397-7.826,11.146-11.688c3.748-3.864,7.559-7.664,11.335-11.5
						c3.833-3.778,7.636-7.587,11.498-11.336l5.807-5.61c1.962-1.844,3.899-3.713,5.882-5.535c-1.823,1.983-3.691,3.92-5.535,5.882
						l-5.61,5.807c-3.749,3.862-7.558,7.665-11.336,11.499c-3.835,3.776-7.636,7.587-11.5,11.335
						C152.952,238.391,149.078,242.128,145.126,245.788z"/>
				</g>
				<g>
					<path style="fill:#FFFFFF;" d="M186.14,210.982c2.588-2.88,5.254-5.683,7.932-8.473c2.676-2.792,5.416-5.521,8.12-8.285
						c2.762-2.706,5.493-5.443,8.284-8.121l4.2-4.003c1.426-1.308,2.827-2.641,4.275-3.928c-1.287,1.447-2.62,2.849-3.928,4.275
						l-4.003,4.2c-2.678,2.79-5.415,5.522-8.121,8.284c-2.764,2.705-5.493,5.444-8.285,8.12
						C191.822,205.728,189.02,208.393,186.14,210.982z"/>
				</g>
				<g>
					<path style="fill:#FFFFFF;" d="M204.984,180.61c0.386-0.944,0.989-1.672,1.642-2.349c0.675-0.655,1.403-1.257,2.349-1.642
						c-0.385,0.945-0.987,1.673-1.642,2.349C206.655,179.621,205.927,180.223,204.984,180.61z"/>
				</g>
				<g>
					<path style="fill:#FFFFFF;" d="M164.635,208.987c0.682-1.24,1.58-2.263,2.529-3.235c0.971-0.95,1.994-1.848,3.235-2.529
						c-0.68,1.241-1.578,2.264-2.529,3.235C166.898,207.407,165.875,208.305,164.635,208.987z"/>
				</g>
				<g>
					<path style="fill:#FFFFFF;" d="M131.603,248.226c2.514-2.806,5.107-5.535,7.71-8.252c2.602-2.719,5.268-5.374,7.899-8.063
						c2.688-2.633,5.345-5.296,8.062-7.9l4.089-3.892c1.389-1.271,2.753-2.567,4.164-3.817c-1.25,1.41-2.546,2.775-3.817,4.164
						l-3.892,4.089c-2.604,2.717-5.267,5.374-7.9,8.062c-2.69,2.631-5.345,5.296-8.063,7.899
						C137.138,243.12,134.409,245.712,131.603,248.226z"/>
				</g>
				<g>
					<path style="fill:#FFFFFF;" d="M223.162,182.827c2.604-3.16,5.422-6.106,8.293-8.999c2.892-2.872,5.838-5.69,8.999-8.293
						c-2.602,3.162-5.421,6.107-8.293,8.999C229.268,177.405,226.322,180.223,223.162,182.827z"/>
				</g>
				<g>
					<path style="fill:#FFFFFF;" d="M256.638,140.483c2.293-2.585,4.663-5.092,7.045-7.587c2.374-2.503,4.803-4.951,7.233-7.398
						c2.447-2.431,4.895-4.86,7.397-7.235l3.757-3.559c1.278-1.161,2.532-2.345,3.831-3.485c-1.139,1.299-2.324,2.553-3.485,3.831
						l-3.559,3.757c-2.374,2.503-4.804,4.951-7.234,7.397c-2.447,2.43-4.895,4.859-7.398,7.233
						C261.73,135.82,259.223,138.19,256.638,140.483z"/>
				</g>
				<g>
					<path style="fill:#FFFFFF;" d="M273.265,133.611c2.604-3.16,5.422-6.106,8.293-8.999c2.892-2.872,5.838-5.69,8.999-8.293
						c-2.602,3.162-5.421,6.107-8.293,8.999C279.371,128.189,276.425,131.007,273.265,133.611z"/>
				</g>
				<g>
					<path style="fill:#FFFFFF;" d="M271.492,110.554c2.404-2.695,4.885-5.313,7.378-7.919c2.485-2.614,5.025-5.173,7.566-7.731
						c2.557-2.541,5.116-5.082,7.73-7.567l3.923-3.726c1.333-1.216,2.643-2.456,3.997-3.651c-1.194,1.355-2.435,2.664-3.651,3.997
						l-3.725,3.923c-2.485,2.613-5.026,5.172-7.567,7.73c-2.558,2.541-5.117,5.081-7.731,7.566
						C276.805,105.67,274.187,108.151,271.492,110.554z"/>
				</g>
				<g>
					<path style="fill:#FFFFFF;" d="M292.553,107.672c2.234-2.791,4.683-5.367,7.184-7.891c2.522-2.503,5.099-4.951,7.891-7.184
						c-2.233,2.792-4.682,5.368-7.184,7.891C297.92,102.989,295.343,105.438,292.553,107.672z"/>
				</g>
				<g>
					<path style="fill:#FFFFFF;" d="M246.368,136.709c1.926-2.482,4.066-4.75,6.259-6.965c2.214-2.194,4.482-4.334,6.965-6.259
						c-1.924,2.484-4.065,4.751-6.259,6.965C251.118,132.643,248.85,134.783,246.368,136.709z"/>
				</g>
				<g>
					<path style="fill:#FFFFFF;" d="M208.974,171.742c1.591-1.882,3.259-3.687,4.939-5.48c1.672-1.801,3.399-3.547,5.127-5.292
						c1.745-1.729,3.49-3.456,5.291-5.128l2.704-2.506c0.927-0.81,1.83-1.643,2.778-2.432c-0.788,0.948-1.622,1.851-2.432,2.778
						l-2.506,2.704c-1.673,1.801-3.4,3.547-5.128,5.291c-1.745,1.728-3.491,3.455-5.292,5.127
						C212.661,168.483,210.856,170.151,208.974,171.742z"/>
				</g>
				<g>
					<path style="fill:#FFFFFF;" d="M220.502,177.063c2.456-3.012,5.126-5.81,7.849-8.556c2.744-2.724,5.542-5.395,8.556-7.849
						c-2.454,3.014-5.125,5.812-7.849,8.556C226.313,171.936,223.514,174.607,220.502,177.063z"/>
				</g>
				<g>
					<path style="fill:#FFFFFF;" d="M184.588,185.487c2.161-2.717,4.535-5.219,6.963-7.669c2.449-2.429,4.951-4.804,7.669-6.963
						c-2.159,2.718-4.534,5.221-6.962,7.669C189.807,180.952,187.304,183.326,184.588,185.487z"/>
				</g>
				<g>
					<path style="fill:#FFFFFF;" d="M187.691,197.458c1.421-1.979,3.058-3.741,4.746-5.452c1.71-1.689,3.472-3.326,5.452-4.746
						c-1.419,1.98-3.056,3.742-4.746,5.452C191.432,194.401,189.67,196.038,187.691,197.458z"/>
				</g>
				<g>
					<path style="fill:#FFFFFF;" d="M85.712,283.032c2.699-2.991,5.476-5.904,8.265-8.806c2.787-2.903,5.637-5.743,8.453-8.618
						c2.873-2.817,5.715-5.665,8.616-8.454l4.366-4.169c1.481-1.364,2.938-2.752,4.441-4.094c-1.342,1.503-2.73,2.96-4.094,4.441
						l-4.169,4.366c-2.789,2.901-5.637,5.744-8.454,8.616c-2.875,2.816-5.714,5.666-8.618,8.453
						C91.617,277.556,88.703,280.333,85.712,283.032z"/>
				</g>
				<g>
					<path style="fill:#FFFFFF;" d="M90.589,266.184c2.161-2.717,4.535-5.219,6.963-7.669c2.449-2.429,4.951-4.804,7.669-6.963
						c-2.159,2.718-4.534,5.221-6.963,7.669C95.809,261.648,93.306,264.023,90.589,266.184z"/>
				</g>
				<g>
					<path style="fill:#FFFFFF;" d="M84.382,257.759c2.456-3.012,5.126-5.81,7.849-8.556c2.744-2.724,5.542-5.395,8.556-7.849
						c-2.454,3.014-5.125,5.812-7.849,8.556C90.192,252.633,87.394,255.303,84.382,257.759z"/>
				</g>
				<g>
					<path style="fill:#FFFFFF;" d="M121.183,244.901c2.551-2.843,5.18-5.609,7.821-8.363c2.639-2.755,5.342-5.447,8.009-8.174
						c2.725-2.67,5.419-5.37,8.173-8.011l4.145-3.947c1.407-1.29,2.79-2.604,4.219-3.873c-1.269,1.429-2.583,2.812-3.873,4.219
						l-3.947,4.145c-2.641,2.754-5.341,5.448-8.011,8.173c-2.727,2.668-5.419,5.37-8.174,8.009
						C126.792,239.721,124.026,242.35,121.183,244.901z"/>
				</g>
				<g>
					<path style="fill:#FFFFFF;" d="M108.082,242.927c1.631-1.923,3.34-3.768,5.061-5.602c1.712-1.842,3.48-3.628,5.249-5.414
						c1.785-1.769,3.572-3.537,5.413-5.25l2.764-2.567c0.947-0.83,1.87-1.684,2.839-2.492c-0.808,0.969-1.662,1.892-2.492,2.839
						l-2.567,2.764c-1.713,1.841-3.481,3.628-5.25,5.413c-1.786,1.768-3.572,3.536-5.414,5.249
						C111.85,239.587,110.005,241.296,108.082,242.927z"/>
				</g>
				<g>
					<path style="fill:#FFFFFF;" d="M79.726,242.906c1.702-1.993,3.481-3.909,5.272-5.813c1.783-1.912,3.621-3.769,5.46-5.625
						c1.855-1.839,3.712-3.678,5.624-5.461l2.87-2.673c0.982-0.865,1.941-1.754,2.944-2.598c-0.843,1.004-1.733,1.962-2.598,2.944
						l-2.672,2.87c-1.783,1.911-3.622,3.768-5.461,5.624c-1.856,1.839-3.713,3.677-5.625,5.46
						C83.635,239.425,81.72,241.204,79.726,242.906z"/>
				</g>
				<g>
					<path style="fill:#FFFFFF;" d="M82.165,228.496c0.977-1.535,2.171-2.854,3.415-4.122c1.267-1.246,2.586-2.439,4.122-3.415
						c-0.976,1.537-2.169,2.855-3.415,4.122C85.019,226.325,83.7,227.518,82.165,228.496z"/>
				</g>
				<g>
					<path style="fill:#FFFFFF;" d="M175.72,183.27c2.404-2.695,4.885-5.313,7.378-7.919c2.485-2.614,5.025-5.173,7.566-7.731
						c2.557-2.542,5.116-5.082,7.73-7.567l3.923-3.726c1.333-1.216,2.643-2.456,3.997-3.651c-1.194,1.355-2.435,2.664-3.651,3.998
						l-3.726,3.923c-2.485,2.614-5.025,5.172-7.567,7.73c-2.558,2.541-5.117,5.081-7.731,7.566
						C181.033,178.385,178.415,180.866,175.72,183.27z"/>
				</g>
				<g>
					<path style="fill:#FFFFFF;" d="M172.616,173.072c1.443-1.735,2.964-3.392,4.496-5.037c1.524-1.653,3.104-3.251,4.684-4.849
						c1.597-1.581,3.195-3.16,4.848-4.685l2.482-2.285c0.853-0.736,1.682-1.496,2.557-2.21c-0.714,0.875-1.474,1.703-2.21,2.557
						l-2.285,2.482c-1.525,1.653-3.104,3.251-4.685,4.848c-1.598,1.58-3.196,3.16-4.849,4.684
						C176.008,170.109,174.351,171.629,172.616,173.072z"/>
				</g>
				<g>
					<path style="fill:#FFFFFF;" d="M141.136,169.082c1.717-2.273,3.649-4.332,5.632-6.339c2.005-1.985,4.064-3.917,6.339-5.632
						c-1.716,2.275-3.647,4.334-5.632,6.339C145.468,165.433,143.409,167.365,141.136,169.082z"/>
				</g>
				<g>
					<path style="fill:#FFFFFF;" d="M185.918,140.262c1.717-2.273,3.649-4.333,5.632-6.339c2.005-1.985,4.064-3.917,6.339-5.632
						c-1.716,2.275-3.647,4.334-5.632,6.339C190.25,136.613,188.191,138.544,185.918,140.262z"/>
				</g>
				<g>
					<path style="fill:#FFFFFF;" d="M188.146,150.004c1.269-1.827,2.755-3.437,4.291-4.997c1.558-1.538,3.169-3.023,4.997-4.291
						c-1.268,1.828-2.753,3.439-4.291,4.997C191.584,147.25,189.973,148.735,188.146,150.004z"/>
				</g>
				<g>
					<path style="fill:#FFFFFF;" d="M172.838,166.643c2.087-2.643,4.388-5.071,6.741-7.448c2.375-2.355,4.803-4.656,7.448-6.741
						c-2.085,2.645-4.386,5.073-6.741,7.448C177.909,162.255,175.481,164.556,172.838,166.643z"/>
				</g>
				<g>
					<path style="fill:#FFFFFF;" d="M253.756,103.46c2.161-2.717,4.535-5.219,6.962-7.669c2.449-2.429,4.951-4.804,7.669-6.963
						c-2.159,2.718-4.534,5.221-6.963,7.669C258.975,98.925,256.473,101.3,253.756,103.46z"/>
				</g>
				<g>
					<path style="fill:#FFFFFF;" d="M264.176,105.012c2.234-2.791,4.683-5.367,7.184-7.891c2.522-2.503,5.099-4.951,7.891-7.184
						c-2.233,2.792-4.682,5.368-7.184,7.891C269.543,100.329,266.966,102.778,264.176,105.012z"/>
				</g>
				<g>
					<path style="fill:#FFFFFF;" d="M233.804,103.46c1.569-2.125,3.353-4.037,5.189-5.896c1.857-1.838,3.768-3.621,5.896-5.189
						c-1.568,2.127-3.351,4.038-5.189,5.896C237.841,100.107,235.929,101.891,233.804,103.46z"/>
				</g>
				<g>
					<path style="fill:#FFFFFF;" d="M243.78,105.899c1.849-2.141,3.776-4.205,5.715-6.257c1.931-2.06,3.917-4.064,5.903-6.068
						c2.003-1.987,4.008-3.973,6.067-5.904l3.091-2.894c1.056-0.939,2.088-1.902,3.166-2.82c-0.918,1.078-1.881,2.11-2.82,3.166
						l-2.894,3.091c-1.931,2.059-3.917,4.064-5.904,6.067c-2.004,1.986-4.008,3.973-6.068,5.903
						C247.985,102.122,245.921,104.049,243.78,105.899z"/>
				</g>
				<g>
					<path style="fill:#FFFFFF;" d="M225.379,97.696c1.517-1.808,3.111-3.54,4.717-5.259c1.598-1.727,3.252-3.399,4.905-5.071
						c1.671-1.655,3.343-3.308,5.07-4.907l2.593-2.395c0.89-0.773,1.756-1.57,2.667-2.321c-0.751,0.912-1.548,1.777-2.321,2.667
						l-2.395,2.593c-1.599,1.727-3.252,3.399-4.907,5.07c-1.672,1.654-3.343,3.307-5.071,4.905
						C228.919,94.585,227.188,96.179,225.379,97.696z"/>
				</g>
				<g>
					<path style="fill:#FFFFFF;" d="M208.752,101.022c1.643-2.199,3.501-4.185,5.411-6.117c1.931-1.911,3.916-3.769,6.117-5.411
						c-1.642,2.201-3.499,4.186-5.411,6.117C212.937,97.521,210.952,99.378,208.752,101.022z"/>
				</g>
				<g>
					<path style="fill:#FFFFFF;" d="M192.569,102.574c1.421-1.979,3.058-3.741,4.746-5.452c1.71-1.689,3.472-3.326,5.452-4.746
						c-1.419,1.98-3.056,3.742-4.746,5.452C196.309,99.516,194.547,101.153,192.569,102.574z"/>
				</g>
				<g>
					<path style="fill:#FFFFFF;" d="M169.734,110.776c1.48-1.772,3.037-3.466,4.607-5.148c1.561-1.69,3.178-3.325,4.795-4.96
						c1.634-1.618,3.269-3.234,4.959-4.796l2.537-2.34c0.872-0.754,1.719-1.533,2.612-2.265c-0.733,0.893-1.511,1.74-2.265,2.612
						l-2.34,2.537c-1.562,1.69-3.178,3.325-4.796,4.959c-1.635,1.617-3.27,3.233-4.96,4.795
						C173.2,107.739,171.506,109.296,169.734,110.776z"/>
				</g>
				<g>
					<path style="fill:#FFFFFF;" d="M134.556,136.838c1.944-2.236,3.965-4.394,5.999-6.54c2.025-2.155,4.106-4.253,6.187-6.352
						c2.098-2.082,4.197-4.162,6.351-6.188l3.233-3.036c1.104-0.986,2.183-1.997,3.308-2.961c-0.965,1.125-1.975,2.204-2.961,3.308
						l-3.036,3.233c-2.026,2.154-4.106,4.253-6.188,6.351c-2.099,2.081-4.198,4.162-6.352,6.187
						C138.95,132.872,136.792,134.894,134.556,136.838z"/>
				</g>
				<g>
					<path style="fill:#FFFFFF;" d="M79.948,204.109c1.739-2.03,3.555-3.983,5.382-5.924c1.82-1.949,3.695-3.842,5.571-5.736
						c1.892-1.876,3.786-3.751,5.735-5.572l2.925-2.728c1.001-0.883,1.978-1.791,3-2.653c-0.862,1.022-1.77,1.999-2.653,3
						l-2.728,2.925c-1.82,1.948-3.695,3.842-5.572,5.735c-1.893,1.876-3.787,3.751-5.736,5.571
						C83.931,200.555,81.978,202.371,79.948,204.109z"/>
				</g>
				<g>
					<path style="fill:#FFFFFF;" d="M77.953,221.623c2.086-1.97,4.242-3.856,6.409-5.728c2.159-1.881,4.368-3.702,6.577-5.522
						c2.224-1.802,4.449-3.602,6.724-5.342l3.414-2.608c1.161-0.841,2.3-1.708,3.48-2.526c-1.037,0.993-2.115,1.936-3.17,2.906
						l-3.237,2.824c-2.16,1.881-4.368,3.702-6.578,5.521c-2.225,1.801-4.45,3.601-6.725,5.341
						C82.578,218.237,80.3,219.972,77.953,221.623z"/>
				</g>
				<g>
					<path style="fill:#FFFFFF;" d="M103.891,325.598c0.83-1.387,1.875-2.558,2.972-3.679c1.119-1.098,2.29-2.144,3.679-2.972
						c-0.828,1.389-1.874,2.56-2.972,3.679C106.45,323.722,105.278,324.768,103.891,325.598z"/>
				</g>
				<g>
					<path style="fill:#FFFFFF;" d="M107.438,341.116c1.717-2.273,3.649-4.332,5.632-6.339c2.005-1.985,4.064-3.917,6.339-5.632
						c-1.716,2.275-3.647,4.334-5.632,6.339C111.771,337.468,109.711,339.399,107.438,341.116z"/>
				</g>
				<g>
					<path style="fill:#FFFFFF;" d="M209.639,308.084c2.382-2.938,4.979-5.663,7.628-8.334c2.67-2.65,5.394-5.247,8.334-7.628
						c-2.381,2.94-4.977,5.664-7.628,8.334C215.302,303.105,212.577,305.702,209.639,308.084z"/>
				</g>
				<g>
					<path style="fill:#FFFFFF;" d="M311.618,112.55c1.496-2.052,3.205-3.889,4.967-5.674c1.784-1.764,3.621-3.474,5.674-4.967
						c-1.494,2.053-3.204,3.89-4.967,5.674C315.507,109.344,313.67,111.054,311.618,112.55z"/>
				</g>
				<g>
					<path style="fill:#FFFFFF;" d="M335.783,119.866c0.83-1.387,1.875-2.558,2.972-3.679c1.119-1.098,2.29-2.144,3.679-2.972
						c-0.828,1.389-1.874,2.56-2.972,3.679C338.341,117.99,337.17,119.036,335.783,119.866z"/>
				</g>
				<g>
					<path style="fill:#FFFFFF;" d="M287.01,401.86c1.421-1.979,3.058-3.741,4.746-5.452c1.71-1.689,3.472-3.326,5.452-4.746
						c-1.419,1.98-3.056,3.742-4.746,5.452C290.751,398.803,288.989,400.44,287.01,401.86z"/>
				</g>
			</g>
		</g>
		<g>
			<path style="fill:#333232;" d="M416.583,250c-0.059-10.903-1.119-21.806-3.32-32.479c-2.25-10.657-5.479-21.112-9.849-31.067
				c-4.322-9.973-9.664-19.481-15.885-28.345c-6.213-8.869-13.264-17.125-21.044-24.597c-7.779-7.477-16.303-14.124-25.29-20.009
				c-2.291-1.404-4.539-2.875-6.859-4.224c-2.355-1.289-4.667-2.655-7.053-3.881c-2.405-1.187-4.766-2.466-7.205-3.581
				c-2.46-1.067-4.877-2.234-7.37-3.221c-9.939-4.021-20.231-7.169-30.744-9.275c-10.517-2.07-21.223-3.254-31.967-3.344
				c-21.478-0.269-43.065,3.592-63.143,11.576c-10.04,3.977-19.701,8.955-28.799,14.837c-9.073,5.917-17.57,12.748-25.296,20.371
				c-15.42,15.279-27.752,33.695-35.91,53.804C88.606,206.654,84.746,228.406,84.978,250c0.171,10.805,1.379,21.575,3.627,32.108
				c2.257,10.53,5.521,20.828,9.741,30.706c8.44,19.755,20.707,37.825,35.938,52.9c15.236,15.066,33.427,27.099,53.221,35.164
				c9.9,4.018,20.167,7.127,30.645,9.198c10.479,2.079,21.16,3.081,31.847,3.128c10.688,0.035,21.38-0.955,31.875-2.986
				c10.496-2.033,20.787-5.106,30.723-9.083c2.493-0.973,4.91-2.128,7.372-3.182c2.44-1.102,4.802-2.368,7.21-3.543
				c2.387-1.216,4.699-2.574,7.056-3.854c2.322-1.341,4.572-2.803,6.865-4.198c9.002-5.844,17.524-12.483,25.31-19.943
				c15.546-14.922,28.315-32.938,36.952-52.889c4.369-9.952,7.607-20.4,9.862-31.053C415.433,271.803,416.51,260.903,416.583,250z
				 M417.283,250c0.045,10.952-1.002,21.904-3.041,32.672c-1.988,10.783-5.115,21.349-9.116,31.583
				c-4.042,10.219-9.065,20.073-14.994,29.378c-5.937,9.3-12.802,18.034-20.465,26.037c-7.675,7.987-16.124,15.28-25.287,21.585
				c-2.325,1.521-4.612,3.11-6.975,4.577c-2.399,1.406-4.757,2.892-7.197,4.232c-2.475,1.272-4.909,2.635-7.423,3.832
				c-2.536,1.149-5.032,2.398-7.607,3.464c-20.51,8.783-42.859,13.175-65.181,13.309c-22.326-0.007-44.705-4.358-65.287-13.053
				c-20.593-8.652-39.409-21.408-55.082-37.247c-15.675-15.835-28.196-34.772-36.472-55.404
				C84.823,294.35,80.856,272.091,81.145,250c0.15-11.05,1.361-22.075,3.639-32.864c0.546-2.701,1.276-5.363,1.905-8.044
				c0.669-2.672,1.542-5.289,2.295-7.936c0.785-2.638,1.769-5.214,2.643-7.822c0.915-2.595,2.023-5.118,3.025-7.68
				c8.558-20.277,21.015-38.867,36.501-54.499c7.735-7.823,16.209-14.925,25.3-21.157c9.065-6.269,18.76-11.657,28.907-16.046
				c20.289-8.79,42.404-13.518,64.636-13.802c22.222-0.195,44.562,4.082,65.069,12.759c2.575,1.053,5.071,2.289,7.609,3.425
				c2.516,1.184,4.951,2.535,7.429,3.795c2.441,1.33,4.8,2.808,7.201,4.205c2.365,1.458,4.654,3.038,6.981,4.551
				c9.178,6.264,17.624,13.551,25.306,21.519c7.667,7.988,14.548,16.703,20.484,25.999c5.93,9.299,10.954,19.147,14.997,29.362
				c4,10.23,7.135,20.79,9.129,31.569C416.25,228.099,417.314,239.048,417.283,250z"/>
		</g>
		<g>
			<g>
				<path style="fill:#333232;" d="M263.407,234.698c-0.749,0.106-1.355,0.612-1.717,1.244c-0.375,0.631-0.586,1.353-0.752,2.079
					c-0.349,1.454-0.46,2.974-1.067,4.437c-0.714,1.43-1.876,2.539-3.161,3.384c-1.287,0.847-2.657,1.534-4.042,2.151
					c-2.738,1.242-5.629,2.306-7.774,4.262c-1.069,0.962-1.82,2.223-2.032,3.624c-0.206,0.701-0.105,1.321,0.116,2.016
					c0.219,0.678,0.546,1.421,0.657,2.229c0.264,1.587-0.081,3.165-0.405,4.62c-0.284,1.497-0.81,2.96-1.315,4.367
					c-0.503,1.414-0.928,2.85-1.061,4.324c-0.149,1.475,0.197,2.958,0.967,4.226c0.769,1.27,1.775,2.406,2.701,3.602
					c0.93,1.191,1.798,2.457,2.457,3.83c0.671,1.361,1.223,2.771,1.98,4.052c0.748,1.28,1.737,2.412,2.986,3.188
					c2.505,1.571,5.553,2.023,8.504,2.251c2.982,0.201,5.985,0.07,8.99-0.093c2.976-0.189,6.01-0.615,9.1-0.399
					c1.536,0.117,3.114,0.369,4.564,1.083c0.36,0.18,0.719,0.362,1.046,0.607c0.331,0.21,0.687,0.492,0.959,0.825
					c0.558,0.662,0.843,1.398,1.251,1.904c0.409,0.533,0.896,0.8,1.585,0.883c0.677,0.1,1.437,0.048,2.261,0.169
					c0.41,0.063,0.855,0.181,1.258,0.443c0.397,0.272,0.672,0.576,0.936,0.957c0.501,0.78,0.523,1.775,0.315,2.56
					c-0.397,1.61-1.403,2.853-1.927,4.171c-0.114,0.335-0.301,0.65-0.361,1.003l-0.212,1.052c-0.038,0.719-0.089,1.442,0.01,2.173
					c0.283,2.929,1.451,5.77,2.051,8.756c0.293,1.495,0.434,3.046,0.186,4.57c-0.286,1.524-1.027,2.898-1.984,4.073l-0.077-0.064
					c0.893-1.21,1.544-2.581,1.75-4.057c0.17-1.479-0.045-2.964-0.369-4.415c-0.669-2.908-1.966-5.686-2.335-8.783
					c-0.119-0.768-0.085-1.557-0.055-2.343l0.21-1.171c0.062-0.393,0.255-0.752,0.379-1.13c0.254-0.772,0.684-1.399,1.006-2.067
					c0.336-0.657,0.635-1.322,0.787-1.986c0.157-0.665,0.095-1.301-0.223-1.806c-0.164-0.238-0.409-0.497-0.637-0.648
					c-0.231-0.15-0.53-0.238-0.863-0.288c-0.67-0.102-1.432-0.048-2.25-0.158c-0.408-0.057-0.843-0.159-1.253-0.384
					c-0.415-0.229-0.728-0.535-1-0.872c-0.53-0.68-0.804-1.382-1.236-1.87c-0.208-0.251-0.45-0.441-0.756-0.635
					c-0.278-0.21-0.594-0.366-0.909-0.523c-1.271-0.622-2.734-0.857-4.19-0.991c-2.943-0.242-5.932,0.137-8.972,0.299
					c-3.019,0.139-6.062,0.211-9.101-0.056c-3.01-0.28-6.136-0.855-8.745-2.586c-1.301-0.855-2.322-2.092-3.056-3.43
					c-0.737-1.344-1.266-2.764-1.923-4.111c-0.635-1.357-1.473-2.602-2.385-3.796c-0.902-1.201-1.947-2.302-2.754-3.613
					c-0.821-1.303-1.204-2.893-1.08-4.429c0.088-1.538,0.483-3.035,0.943-4.475c0.465-1.447,0.924-2.849,1.158-4.33
					c0.289-1.481,0.533-2.937,0.273-4.349c-0.099-0.694-0.394-1.345-0.648-2.096c-0.26-0.723-0.394-1.668-0.167-2.43
					c0.098-0.388,0.113-0.801,0.286-1.167c0.162-0.369,0.309-0.748,0.489-1.106l0.69-0.988c0.255-0.305,0.553-0.57,0.828-0.855
					c2.385-2.105,5.329-3.111,8.063-4.321c1.373-0.604,2.732-1.225,3.99-2.001c1.253-0.763,2.372-1.801,3.045-3.047
					c0.591-1.322,0.798-2.849,1.216-4.306c0.204-0.731,0.455-1.469,0.884-2.12c0.413-0.655,1.122-1.158,1.9-1.217L263.407,234.698z"
					/>
			</g>
			<g>
				<path style="fill:#333232;" d="M340.85,259.051c0.607-0.598,1.308-1.158,2.18-1.435c0.862-0.284,1.907-0.18,2.708,0.319
					c0.812,0.481,1.406,1.197,1.889,1.935c0.486,0.742,0.859,1.539,1.159,2.353c0.578,1.638,0.898,3.326,1.238,4.994l1.013,5.011
					c0.308,1.667,0.651,3.367,0.606,5.125c-0.031,1.729-0.191,3.426-0.339,5.106c-0.149,1.678-0.304,3.348-0.197,5.001
					c0.108,1.64,0.508,3.285,1.56,4.628l-0.071,0.07c-1.326-1.134-2.004-2.903-2.266-4.612c-0.242-1.731-0.21-3.469-0.089-5.173
					c0.124-1.705,0.364-3.384,0.462-5.051c0.102-1.643-0.089-3.321-0.208-5.018c-0.15-1.687-0.384-3.37-0.787-5.015
					c-0.41-1.643-1.009-3.236-1.693-4.753c-0.693-1.486-1.434-3.044-2.691-3.946c-0.622-0.432-1.386-0.63-2.166-0.465
					c-0.78,0.149-1.525,0.551-2.243,1.003L340.85,259.051z"/>
			</g>
			<g>
				<path style="fill:#333232;" d="M292.284,179.076c-1.052-2.303-1.42-4.943-1.018-7.505c0.229-1.275,0.669-2.539,1.409-3.649
					c0.718-1.125,1.847-1.992,3.025-2.518c1.176-0.544,2.378-0.892,3.455-1.469c1.083-0.573,2.062-1.357,2.929-2.25
					c0.874-0.892,1.624-1.894,2.387-2.895c0.769-0.997,1.536-1.998,2.343-2.97c1.61-1.945,3.384-3.782,5.418-5.337
					c2.014-1.554,4.337-2.874,6.96-3.296c0.644-0.15,1.316-0.102,1.975-0.131c0.33-0.003,0.658,0.074,0.987,0.109
					c0.326,0.056,0.662,0.067,0.972,0.191c1.298,0.354,2.424,0.93,3.556,1.463c1.131,0.53,2.252,1.06,3.442,1.362
					c0.595,0.14,1.199,0.239,1.814,0.256c0.614,0.004,1.227-0.089,1.832-0.246l0.034,0.094c-1.167,0.514-2.513,0.611-3.784,0.392
					c-1.271-0.228-2.488-0.66-3.653-1.142c-1.163-0.484-2.316-0.991-3.467-1.242c-0.282-0.104-0.587-0.086-0.879-0.132
					c-0.295-0.023-0.587-0.09-0.885-0.08c-0.593,0.045-1.19,0.005-1.774,0.159c-2.358,0.401-4.584,1.549-6.572,2.999
					c-1.995,1.452-3.832,3.147-5.569,4.945c-0.845,0.92-1.706,1.834-2.476,2.823c-0.785,0.977-1.571,1.968-2.428,2.9
					c-0.856,0.93-1.794,1.811-2.883,2.508c-1.097,0.695-2.295,1.15-3.364,1.733c-2.199,1.041-3.579,3.173-4.053,5.566
					c-0.496,2.383-0.341,4.924,0.358,7.325L292.284,179.076z"/>
			</g>
			<g>
				<path style="fill:#333232;" d="M281.928,368.337c3.447,1.008,7.099,1.265,10.539,0.464c1.721-0.377,3.37-1.046,4.896-1.916
					c1.509-0.897,2.992-1.881,4.198-3.156c1.244-1.25,2.342-2.678,3.53-4.047c1.176-1.356,2.506-2.712,4.185-3.481
					c1.652-0.781,3.425-1.2,4.959-2.099c0.769-0.441,1.475-0.983,2.021-1.663c0.551-0.68,0.968-1.459,1.359-2.264
					c0.391-0.804,0.773-1.637,1.269-2.422c0.498-0.792,1.111-1.494,1.758-2.144c1.301-1.303,2.761-2.401,4.191-3.484
					c1.432-1.088,2.84-2.173,3.942-3.5c1.089-1.347,1.945-2.876,2.623-4.518c0.704-1.628,1.274-3.354,2.084-5
					c0.794-1.64,1.782-3.251,3.089-4.566c2.606-2.63,5.844-4.294,8.486-6.736l0.071,0.07c-2.443,2.68-5.618,4.589-7.988,7.202
					c-1.196,1.288-2.064,2.817-2.785,4.437c-0.719,1.616-1.308,3.307-2.007,4.994c-0.693,1.682-1.56,3.359-2.775,4.788
					c-1.234,1.428-2.729,2.524-4.177,3.584c-1.451,1.069-2.914,2.094-4.201,3.3c-0.638,0.606-1.242,1.246-1.743,1.953
					c-0.503,0.714-0.916,1.502-1.351,2.296c-0.43,0.794-0.902,1.595-1.518,2.291c-0.622,0.695-1.381,1.243-2.175,1.69
					c-1.605,0.898-3.403,1.283-4.979,2.103c-0.789,0.403-1.525,0.901-2.159,1.513c-0.63,0.617-1.199,1.311-1.75,2.013
					c-1.101,1.408-2.116,2.909-3.361,4.265c-2.558,2.67-5.922,4.515-9.532,5.25c-3.618,0.712-7.392,0.241-10.733-1.12
					L281.928,368.337z"/>
			</g>
			<g>
				<path style="fill:#333232;" d="M132.906,271.573c1.242-0.846,2.852-0.964,4.294-0.667c1.462,0.274,2.843,0.826,4.217,1.311
					c0.697,0.255,1.352,0.444,2.088,0.654c0.714,0.225,1.396,0.517,2.072,0.778c1.348,0.562,2.725,0.809,4.186,0.825
					c1.439,0.052,2.999,0.031,4.448,0.636c0.718,0.28,1.415,0.735,1.94,1.317c0.527,0.577,0.933,1.191,1.378,1.756
					c0.87,1.146,1.888,2.138,3.058,2.965c1.167,0.833,2.443,1.557,3.673,2.395c1.231,0.835,2.394,1.774,3.457,2.83
					c1.059,1.055,2.026,2.245,2.678,3.65c0.329,0.7,0.52,1.508,0.533,2.282c0.025,0.775-0.059,1.496-0.058,2.211
					c0.001,1.424,0.169,2.859,0.712,4.158c0.276,0.645,0.641,1.247,1.085,1.789c0.464,0.523,0.99,0.995,1.59,1.371
					c1.201,0.746,2.599,1.183,4.024,1.392c1.421,0.201,2.949,0.269,4.343,0.867c1.392,0.578,2.526,1.588,3.766,2.289
					c1.256,0.723,2.717,0.89,4.177,0.896c1.465,0.015,2.967,0.19,4.372,0.693c0.697,0.259,1.39,0.594,1.955,1.126
					c0.559,0.535,0.908,1.32,0.884,2.099c-0.036,1.566-0.819,2.908-1.518,4.186c-0.725,1.279-1.537,2.509-2.109,3.817
					c-0.307,0.65-0.416,1.321-0.495,2.041c-0.07,0.71-0.07,1.428-0.038,2.147c0.077,1.441,0.326,2.884,0.404,4.38
					c0.049,0.746,0.01,1.513-0.113,2.276c-0.107,0.374-0.153,0.767-0.331,1.122l-0.23,0.544l-0.313,0.5
					c-0.864,1.339-2.223,2.183-3.538,2.875c-1.323,0.692-2.786,1.093-3.615,2.095c-0.865,0.993-1.195,2.435-1.543,3.825
					c-0.319,1.411-0.576,2.85-0.852,4.292c-0.275,1.445-0.589,2.892-0.986,4.33c-0.423,1.433-0.977,2.844-1.738,4.169
					c-0.787,1.312-1.865,2.477-3.163,3.329c-1.297,0.893-2.836,1.245-4.329,1.516l0.446-0.503c-0.02,0.854,0.134,1.717,0.131,2.694
					c-0.022,0.993-0.254,1.957-0.829,2.829c-0.576,0.845-1.359,1.404-2.036,1.96c-0.679,0.556-1.309,1.124-1.603,1.846
					c-0.292,0.701-0.31,1.607-0.295,2.468c0.027,0.873,0.118,1.756,0.252,2.633c0.273,1.75,0.648,3.51,1.203,5.181
					c0.517,1.656,1.802,2.91,3.175,4.04c1.36,1.14,2.872,2.253,3.843,3.862c0.473,0.789,0.861,1.617,1.118,2.508
					c0.124,0.445,0.213,0.908,0.199,1.386c-0.008,0.47-0.16,0.981-0.481,1.341c-0.295,0.376-0.737,0.649-1.206,0.731
					c-0.469,0.088-0.936,0.034-1.382-0.049c-0.893-0.164-1.742-0.496-2.633-0.52l-0.001-0.1c0.92-0.008,1.79,0.296,2.667,0.422
					c0.86,0.159,1.826,0.054,2.317-0.671c0.538-0.664,0.394-1.612,0.134-2.424c-0.276-0.826-0.68-1.63-1.141-2.373
					c-0.932-1.481-2.404-2.534-3.807-3.658c-1.398-1.101-2.847-2.442-3.459-4.262c-0.613-1.73-1.023-3.493-1.341-5.287
					c-0.155-0.897-0.268-1.804-0.315-2.727c-0.025-0.922-0.061-1.867,0.31-2.85c0.382-0.97,1.143-1.652,1.827-2.24
					c0.698-0.588,1.381-1.126,1.822-1.778c0.216-0.312,0.368-0.685,0.483-1.083c0.11-0.389,0.162-0.785,0.166-1.198
					c0.005-0.822-0.155-1.744-0.14-2.69l0.006-0.419l0.44-0.083c1.368-0.259,2.759-0.577,3.896-1.374
					c1.145-0.76,2.102-1.79,2.821-2.995c1.401-2.448,2.06-5.305,2.633-8.156c0.287-1.433,0.558-2.877,0.898-4.322
					c0.379-1.414,0.701-2.96,1.787-4.216c0.535-0.624,1.248-1.054,1.927-1.371l1.998-0.91c1.268-0.636,2.498-1.385,3.26-2.523
					l0.28-0.424l0.205-0.465c0.163-0.3,0.205-0.649,0.309-0.975c0.121-0.681,0.175-1.383,0.141-2.101
					c-0.045-1.432-0.267-2.891-0.319-4.379c-0.018-0.745-0.005-1.494,0.084-2.241c0.09-0.733,0.242-1.521,0.58-2.198
					c0.633-1.368,1.473-2.576,2.216-3.829c0.72-1.242,1.491-2.55,1.544-3.951c0.027-0.696-0.266-1.355-0.757-1.841
					c-0.502-0.482-1.153-0.809-1.822-1.062c-1.359-0.497-2.804-0.679-4.265-0.705c-0.731-0.028-1.474-0.051-2.211-0.179
					c-0.737-0.127-1.455-0.379-2.114-0.733c-1.311-0.73-2.415-1.696-3.754-2.235c-1.327-0.56-2.787-0.606-4.26-0.766
					c-1.472-0.178-2.946-0.591-4.257-1.36c-0.654-0.387-1.241-0.885-1.762-1.446c-0.5-0.58-0.917-1.23-1.234-1.926
					c-0.625-1.4-0.838-2.93-0.876-4.425c-0.014-0.75,0.039-1.492,0.013-2.182c-0.021-0.692-0.179-1.338-0.475-1.963
					c-1.226-2.524-3.545-4.442-5.868-6.1c-1.184-0.825-2.454-1.561-3.666-2.442c-1.216-0.875-2.309-1.963-3.198-3.161
					c-0.454-0.591-0.857-1.206-1.316-1.715c-0.456-0.51-1.012-0.882-1.654-1.143c-1.279-0.546-2.723-0.592-4.193-0.67
					c-0.735-0.043-1.487-0.102-2.229-0.267c-0.742-0.158-1.452-0.419-2.135-0.701c-0.683-0.283-1.344-0.584-2.023-0.815
					c-0.667-0.21-1.419-0.436-2.086-0.719c-1.365-0.545-2.7-1.14-4.114-1.463c-1.395-0.343-2.935-0.295-4.184,0.481L132.906,271.573
					z"/>
			</g>
			<g>
				<path style="fill:#333232;" d="M165.83,197.502c-1.999-0.986-4.251-1.226-6.412-0.953c-2.176,0.251-4.26,1.014-6.277,1.884
					c-2.022,0.875-3.975,1.919-5.934,2.971c-0.967,0.536-1.992,1.031-2.965,1.532c-0.947,0.467-1.778,1.159-2.52,1.936
					c-3.003,3.127-4.661,7.531-7.968,10.628c-1.596,1.53-2.985,3.289-3.924,5.284c-0.961,1.987-1.478,4.155-2.008,6.306l-0.076,0.31
					l-0.303-0.123c-2.07-0.84-3.946-2.113-6.052-2.144c-1.039-0.048-2.047,0.235-3.065,0.606c-0.51,0.186-1.03,0.384-1.582,0.551
					c-0.55,0.18-1.172,0.252-1.715,0.301c-1.118,0.111-2.258,0.053-3.223,0.26c-0.964,0.195-1.754,0.837-2.47,1.609
					c-0.707,0.782-1.372,1.636-1.846,2.547c-0.479,0.915-0.735,1.926-0.89,2.987c-0.266,2.139-0.475,4.362-0.585,6.522
					c-0.092,2.166-0.061,4.369,0.497,6.425c0.294,1.012,0.72,1.999,1.433,2.734c0.701,0.737,1.696,1.237,2.722,1.172
					c1.023-0.047,2.016-0.583,2.75-1.354c0.758-0.761,1.259-1.768,1.507-2.828l0.098,0.018c-0.182,1.092-0.627,2.167-1.373,3.022
					c-0.72,0.859-1.76,1.544-2.947,1.646c-1.193,0.126-2.372-0.4-3.213-1.209c-0.862-0.816-1.386-1.895-1.725-2.978
					c-0.657-2.191-0.741-4.456-0.71-6.677c0.041-2.242,0.276-4.406,0.526-6.639c0.155-1.114,0.435-2.272,0.975-3.317
					c0.54-1.045,1.232-1.954,2.019-2.784c0.774-0.821,1.787-1.634,3.02-1.866c1.202-0.228,2.286-0.133,3.358-0.229
					c0.553-0.044,1.032-0.088,1.535-0.242c0.505-0.143,1.016-0.334,1.546-0.508c1.051-0.354,2.217-0.653,3.391-0.566
					c1.168,0.061,2.292,0.439,3.295,0.935c1.011,0.491,1.951,1.052,2.939,1.493l-0.379,0.187c0.597-2.144,1.239-4.302,2.23-6.322
					c0.987-2.028,2.439-3.78,4-5.371c3.255-3.068,4.54-7.527,7.609-10.953c0.777-0.838,1.672-1.607,2.717-2.142l2.959-1.537
					c1.976-1.019,3.968-2.043,6.045-2.9c2.071-0.859,4.261-1.518,6.522-1.699c2.249-0.188,4.59,0.227,6.513,1.389L165.83,197.502z"
					/>
			</g>
			<g>
				<path style="fill:#333232;" d="M201.136,163.169c0.521,0.389,1.128,0.656,1.755,0.668c0.626,0.014,1.237-0.21,1.775-0.544
					c1.068-0.694,1.959-1.656,2.775-2.664c1.623-2.035,3.009-4.267,4.528-6.423c0.756-1.082,1.522-2.162,2.387-3.186
					c0.868-1.012,1.805-2.032,3.13-2.653c0.719-0.291,1.332-0.375,1.988-0.529l1.932-0.39c1.277-0.238,2.474-0.609,3.499-1.374
					c1.049-0.734,1.914-1.696,2.852-2.641c0.947-0.916,2.055-1.822,3.423-2.066c1.356-0.274,2.679,0.058,3.971,0.103
					c1.298,0.06,2.597-0.125,3.819-0.546c2.454-0.843,4.491-2.647,5.941-4.757c1.436-2.125,2.359-4.638,2.371-7.169l0.002-0.474
					l0.485,0.054c0.868,0.097,1.761,0.059,2.447-0.321c0.7-0.36,1.117-1.101,1.343-1.924c0.435-1.681,0.286-3.554,0.243-5.41
					c-0.024-0.937-0.051-1.884,0.109-2.882c0.078-0.493,0.244-1.037,0.531-1.495c0.285-0.461,0.662-0.832,0.992-1.149
					c0.335-0.322,0.617-0.614,0.805-0.949c0.096-0.166,0.167-0.343,0.222-0.531c0.043-0.144,0.052-0.333,0.059-0.563
					c0.016-0.889-0.037-1.821-0.101-2.736l-0.117-1.369c-0.025-0.21-0.05-0.477-0.089-0.603c-0.076-0.19-0.122-0.394-0.228-0.571
					c-0.354-0.745-0.991-1.345-1.732-1.804c-1.5-0.925-3.332-1.323-5.131-1.624c-3.642-0.557-7.38-0.485-11.101-0.584v-0.1
					c3.712-0.162,7.445-0.438,11.195-0.01c1.862,0.226,3.765,0.593,5.486,1.572c0.847,0.493,1.647,1.187,2.126,2.12
					c0.136,0.223,0.209,0.475,0.307,0.715c0.095,0.32,0.103,0.522,0.144,0.771c0.064,0.473,0.106,0.94,0.143,1.409
					c0.07,0.94,0.131,1.867,0.12,2.839c0.066,1.127-0.697,2.143-1.382,2.758c-0.693,0.639-1.101,1.222-1.21,2.076
					c-0.131,0.843-0.109,1.767-0.104,2.687c0.007,1.846,0.16,3.755-0.363,5.695c-0.266,0.944-0.836,1.973-1.831,2.47
					c-0.97,0.512-2.042,0.494-2.998,0.364l0.487-0.42c-0.079,2.747-1.146,5.358-2.74,7.506c-1.592,2.149-3.773,3.897-6.318,4.744
					c-1.267,0.42-2.618,0.593-3.945,0.514c-1.322-0.045-2.64-0.328-3.883-0.051c-1.258,0.235-2.286,1.109-3.154,2.043
					c-0.872,0.954-1.73,2.005-2.811,2.829c-1.059,0.87-2.422,1.357-3.709,1.646l-1.926,0.423c-0.62,0.148-1.316,0.281-1.812,0.498
					c-1.066,0.519-1.974,1.472-2.826,2.424c-0.848,0.971-1.624,2.024-2.39,3.085c-1.524,2.129-3,4.322-4.749,6.326
					c-0.873,0.995-1.831,1.963-3.025,2.622c-0.596,0.32-1.286,0.528-1.975,0.468c-0.693-0.052-1.31-0.408-1.806-0.844
					L201.136,163.169z"/>
			</g>
			<g>
				<path style="fill:#333232;" d="M367.092,251.657c0.215,1.127,0.622,2.227,1.379,3.046c0.747,0.823,1.744,1.365,2.805,1.716
					c2.147,0.703,4.436,0.823,6.774,1.342c0.577,0.142,1.248,0.407,1.713,0.904c0.447,0.472,0.757,0.91,1.149,1.315
					c0.775,0.831,1.604,1.493,2.649,1.91c2.074,0.835,4.435,0.912,6.733,0.941l0.183,0.002l-0.012,0.179
					c-0.128,1.91-0.127,3.851,0.306,5.698c0.455,1.847,1.453,3.488,2.538,5.057c0.547,0.796,1.111,1.536,1.657,2.377
					c0.525,0.836,1.01,1.71,1.347,2.648c0.704,1.864,0.986,3.889,0.839,5.878c-0.146,1.988-0.692,3.938-1.521,5.722
					c-0.802,1.793-1.821,3.481-3.014,5.033c-2.338,3.104-5.515,5.755-9.263,6.832l-0.031-0.095c3.587-1.436,6.411-4.181,8.591-7.253
					c1.088-1.549,2.009-3.212,2.762-4.941c0.75-1.722,1.275-3.531,1.439-5.382c0.177-1.848-0.042-3.727-0.66-5.481
					c-0.301-0.88-0.711-1.723-1.181-2.531c-0.471-0.794-1.047-1.608-1.536-2.435c-0.998-1.65-1.952-3.411-2.328-5.345
					c-0.424-1.92-0.328-3.874-0.287-5.799l0.171,0.181c-2.297-0.021-4.672,0.142-6.976-0.633c-0.566-0.204-1.13-0.446-1.642-0.794
					c-0.521-0.349-0.954-0.759-1.374-1.182c-0.42-0.419-0.8-0.916-1.157-1.275c-0.348-0.343-0.789-0.527-1.321-0.685
					c-2.154-0.561-4.555-0.676-6.773-1.57c-1.1-0.44-2.176-1.088-2.921-2.051c-0.733-0.971-1.072-2.16-1.134-3.318L367.092,251.657z
					"/>
			</g>
		</g>
	</g>
</g>
</svg>
